<svg id="Capa_1" data-name="Capa 1" xmlns="http://www.w3.org/2000/svg" viewBox="0 0 399.73 306.11"><title>acc-guia</title><path d="M324.5,253.92H74a2.88,2.88,0,0,1,0-5.77H324.5a2.88,2.88,0,1,1,0,5.77Z" style="fill:#fff"/><path d="M309.52,253.92h-51.7a3.08,3.08,0,0,1-3.08-3.08v-179a14.43,14.43,0,0,1,14.42-14.42H298a14.43,14.43,0,0,1,14.42,14.42V251A2.88,2.88,0,0,1,309.52,253.92Zm-49-5.77h46.13V71.88A8.66,8.66,0,0,0,298,63.23H269.16a8.66,8.66,0,0,0-8.65,8.65Z" style="fill:#fff"/><path d="M241.2,253.92H189.5a3.08,3.08,0,0,1-3.08-3.08V151.08a14.43,14.43,0,0,1,14.42-14.42h28.83a14.43,14.43,0,0,1,14.42,14.42V251A2.88,2.88,0,0,1,241.2,253.92Zm-49-5.77h46.13V151.08a8.66,8.66,0,0,0-8.65-8.65H200.84a8.66,8.66,0,0,0-8.65,8.65Z" style="fill:#fff"/><path d="M173.92,253.92h-51.7a3.08,3.08,0,0,1-3.08-3.08V180.39A14.43,14.43,0,0,1,133.56,166h28.83a14.43,14.43,0,0,1,14.42,14.42V251A2.88,2.88,0,0,1,173.92,253.92Zm-49-5.77H171V180.39a8.66,8.66,0,0,0-8.65-8.65H133.56a8.66,8.66,0,0,0-8.65,8.65Z" style="fill:#fff"/><path d="M74,165.94a2.88,2.88,0,0,1-1.89-5.06l33.26-28.77a2.88,2.88,0,1,1,3.77,4.36L75.86,165.24A2.87,2.87,0,0,1,74,165.94Z" style="fill:#fff"/><path d="M142.09,153.57a48.25,48.25,0,0,1-13-1.8,47.75,47.75,0,1,1,13,1.8ZM142,63.22a42.4,42.4,0,1,0,11.47,1.59A42.48,42.48,0,0,0,142,63.22Z" style="fill:#fff"/></svg>