<svg xmlns="http://www.w3.org/2000/svg" viewBox="0 0 350 350"><path d="M326.59,259.76H314.21a5.93,5.93,0,1,1,0-11.85h12.38c1.23,0,4.23-2.06,5.53-21.09l2.75-47.69a2.11,2.11,0,0,1,0-.25c1-10-.66-22.27-4.61-24.08l-33.34-11a5.94,5.94,0,0,1-3.57-3.25l-31-70.85c-.8-1.89-2-4.69-2.79-5.59H200.9a5.92,5.92,0,0,1,0-11.84h59c7.92,0,11.05,7.41,13.33,12.83l.55,1.28,29.36,67,31.06,10.28.34.12c14.31,5.73,12.64,30.84,12.12,36.19L344,227.56C343.18,238.86,341.75,259.76,326.59,259.76ZM259.93,64.08h0Z"/><path d="M240.33,292.76a41.89,41.89,0,1,1,41.89-41.89A41.94,41.94,0,0,1,240.33,292.76Zm0-72.72a30.83,30.83,0,1,0,30.83,30.83A30.86,30.86,0,0,0,240.33,220Z"/><path d="M35.79,259.76H23.41c-15.16,0-16.59-20.9-17.36-32.13L3.31,179.94c-.52-5.35-2.19-30.46,12.12-36.19l.34-.12,31.06-10.28L76.74,65.07C79,59.65,82.15,52.24,90.07,52.24h59a5.92,5.92,0,1,1,0,11.84H90.44c-.81.9-2,3.7-2.79,5.59L87.09,71,56.63,140.52a5.94,5.94,0,0,1-3.57,3.25l-33.34,11c-4.17,1.91-5.5,15.24-4.61,24.08a2.11,2.11,0,0,1,0,.25l2.75,47.75c1.3,19,4.3,21,5.53,21H35.79a5.93,5.93,0,1,1,0,11.85Z"/><path d="M147.58,286.56a6,6,0,0,1-1.8,4.36,5.75,5.75,0,0,1-4.26,1.84,6.27,6.27,0,0,1-4.74-2.34l-26.52-31-26.36,31a6.29,6.29,0,0,1-4.75,2.34,6,6,0,0,1-4.33-1.84,6.06,6.06,0,0,1-1.89-4.52,6.88,6.88,0,0,1,2-4.69l27.17-31.34L76,220a7.34,7.34,0,0,1-2-4.69A6.11,6.11,0,0,1,76,210.82,5.85,5.85,0,0,1,80.14,209a6.32,6.32,0,0,1,4.74,2.34l25.38,29.83,25.37-29.83a6.32,6.32,0,0,1,4.75-2.34,5.73,5.73,0,0,1,4.25,1.84,6,6,0,0,1,1.8,4.36,6.69,6.69,0,0,1-2,4.86l-26,30.33,27.18,31.34A6.69,6.69,0,0,1,147.58,286.56Z" style="fill:#1d1d1b"/><path d="M175,190.29a6.52,6.52,0,0,1-6.52-6.52V153a6.52,6.52,0,1,1,13,0v30.8A6.52,6.52,0,0,1,175,190.29Zm0-66.35a6.52,6.52,0,0,1-6.52-6.52V86.61a6.52,6.52,0,0,1,13,0v30.81A6.52,6.52,0,0,1,175,123.94Z"/></svg>