<svg xmlns="http://www.w3.org/2000/svg" viewBox="0 0 287.33 219.5"><path d="M271.6,181.14H261.15a3.5,3.5,0,0,1,0-7H271.6c4.84,0,5.84-15.36,6.17-20.41l2.31-42.46a.61.61,0,0,0,0-.14c.78-8.18-.25-21.19-4.89-23.3L247,78a3.53,3.53,0,0,1-2.08-2L218.74,13c-.9-2.25-2.4-6-3.4-6H165.52a3.5,3.5,0,0,1,0-7h49.82c5.74,0,7.95,5.52,9.9,10.4l.46,1.15,25.08,60.34,26.85,9.38.21.08c11.24,4.74,9.5,27.43,9.23,30.37l-2.32,42.43C283.91,167.23,282.12,181.14,271.6,181.14Z" style="fill:#fff"/><path d="M26.18,181.14H15.73c-10.53,0-12.31-13.91-13.16-26.95L.26,111.72c-.28-2.94-2-25.63,9.23-30.37l.21-.08,26.85-9.38L62.09,10.4C64,5.52,66.25,0,72,0H121.8a3.5,3.5,0,0,1,0,7H72c-1,0-2.5,3.75-3.39,6l-.48,1.18L42.41,76a3.5,3.5,0,0,1-2.08,2l-28.2,9.84c-4.66,2.11-5.68,15.12-4.9,23.3a.71.71,0,0,1,0,.14l2.32,42.5c.33,5,1.32,20.37,6.17,20.37H26.18a3.5,3.5,0,1,1,0,7Z" style="fill:#fff"/><path d="M191,219.5a40.5,40.5,0,1,1,40.5-40.5A40.54,40.54,0,0,1,191,219.5Zm0-75.07A34.57,34.57,0,1,0,225.61,179,34.61,34.61,0,0,0,191,144.43Z" style="fill:#fff"/><path d="M126.87,217.07a3.31,3.31,0,0,1-2.33-1l-72-72a3.29,3.29,0,0,1,4.65-4.66l72,72a3.29,3.29,0,0,1-2.33,5.62Z" style="fill:#fff"/><path d="M54.88,217.07a3.29,3.29,0,0,1-2.32-5.62l72-72a3.3,3.3,0,0,1,4.66,4.66l-72,72A3.28,3.28,0,0,1,54.88,217.07Z" style="fill:#fff"/><path d="M143.66,116.5a4,4,0,0,1-4-4v-26a4,4,0,0,1,8,0v26A4,4,0,0,1,143.66,116.5Zm0-56a4,4,0,0,1-4-4v-26a4,4,0,0,1,8,0v26A4,4,0,0,1,143.66,60.5Z" style="fill:#fff"/></svg>