<svg id="Capa_1" data-name="Capa 1" xmlns="http://www.w3.org/2000/svg" viewBox="0 0 399.73 306.11"><title>acc-nuevo</title><path d="M347.14,222.89H319.8a3,3,0,0,1,0-6h27.34c15.62,0,20.12-7.34,22.32-19.19l6-38.75a2.91,2.91,0,0,1,.07-.33c0-.06,1.91-7.44-2-13.3-2.62-4-7.39-6.51-14.17-7.51l-74-9a3,3,0,0,1-1.57-.68l-67.2-56.49-1.27-1.1c-4.49-3.92-7.73-6.75-15.41-6.75H69.64a3,3,0,1,1,0-6H200c9.93,0,14.72,4.19,19.36,8.23l1.21,1L287,122.94l73.23,8.93c8.65,1.27,14.82,4.71,18.42,10.22,5,7.63,3.09,16.5,2.73,17.94l-6,38.69C373.14,210.71,368.06,222.89,347.14,222.89Z" style="fill:#fff"/><path d="M280.75,260.89a41,41,0,1,1,41-41A41,41,0,0,1,280.75,260.89Zm0-76a35,35,0,1,0,35,35A35,35,0,0,0,280.75,184.89Z" style="fill:#fff"/><path d="M82.5,260.89a41,41,0,1,1,41-41A41,41,0,0,1,82.5,260.89Zm0-76a35,35,0,1,0,35,35A35,35,0,0,0,82.5,184.89Z" style="fill:#fff"/><path d="M239.46,222.89h-119a3,3,0,1,1,0-6h119a3,3,0,0,1,0,6Z" style="fill:#fff"/><path d="M202.7,130.89H88.25a3,3,0,1,1,0-6H202.7a3,3,0,0,1,0,6Z" style="fill:#fff"/><path d="M209,65.08a3,3,0,0,1-3-2.8l-3.31-48.67a3,3,0,1,1,6-.41L212,61.87a3,3,0,0,1-2.79,3.2Z" style="fill:#fff"/><path d="M209,65.08a3,3,0,0,1-2.26-5l29.5-34A3,3,0,0,1,240.81,30l-29.5,34A3,3,0,0,1,209,65.08Z" style="fill:#fff"/><path d="M209,65.08a3,3,0,0,1-.3-6l41.78-4.25a3,3,0,0,1,.61,6l-41.78,4.25Z" style="fill:#fff"/></svg>