<svg id="Capa_1" data-name="Capa 1" xmlns="http://www.w3.org/2000/svg" viewBox="0 0 399.73 306.11"><title>acc-usado</title><path d="M346.29,228.16H319a3,3,0,0,1,0-6h27.34c15.62,0,20.12-7.34,22.32-19.19l6-38.75a2.91,2.91,0,0,1,.07-.33c0-.06,1.91-7.44-2-13.3-2.62-4-7.39-6.51-14.17-7.51l-74-9a3,3,0,0,1-1.57-.68L215.8,76.89l-1.27-1.1C210,71.88,206.81,69,199.13,69H68.79a3,3,0,0,1,0-6H199.13c9.93,0,14.72,4.19,19.36,8.23l1.21,1,66.5,55.89,73.23,8.93c8.65,1.27,14.82,4.71,18.42,10.22,5,7.63,3.09,16.5,2.73,17.94l-6,38.69C372.3,216,367.22,228.16,346.29,228.16Z" style="fill:#fff"/><path d="M279.91,266.16a41,41,0,1,1,41-41A41,41,0,0,1,279.91,266.16Zm0-76a35,35,0,1,0,35,35A35,35,0,0,0,279.91,190.16Z" style="fill:#fff"/><path d="M81.66,266.16a41,41,0,1,1,41-41A41,41,0,0,1,81.66,266.16Zm0-76a35,35,0,1,0,35,35A35,35,0,0,0,81.66,190.16Z" style="fill:#fff"/><path d="M238.62,228.16h-119a3,3,0,0,1,0-6h119a3,3,0,0,1,0,6Z" style="fill:#fff"/><path d="M201.86,136.16H87.41a3,3,0,1,1,0-6H201.86a3,3,0,0,1,0,6Z" style="fill:#fff"/></svg>