<svg xmlns="http://www.w3.org/2000/svg" viewBox="0 0 342.94 216.69"><title>comparador</title><g id="Capa_2" data-name="Capa 2"><g id="Capa_1-2" data-name="Capa 1"><path d="M323,195.29H308.5a3,3,0,0,1,0-6H323c7.43,0,9.35-3,10.46-9l3.2-20.52a3.13,3.13,0,0,1,.07-.33,8.29,8.29,0,0,0-.87-5.93c-1.17-1.75-3.37-2.88-6.54-3.35l-39.26-4.78a3,3,0,0,1-1.57-.68l-36.36-30.58c-2.31-2-3.7-3.24-7.25-3.24H175.74a3,3,0,0,1,0-6h69.17c5.8,0,8.67,2.51,11.2,4.72l.63.55,35,29.38,38.45,4.69c5,.74,8.64,2.77,10.78,6,2.87,4.4,1.91,9.47,1.66,10.56l-3.2,20.48C338.16,187.84,335.21,195.29,323,195.29Z" style="fill:#040006"/><path d="M287.78,215.45a23.17,23.17,0,1,1,23.17-23.17A23.19,23.19,0,0,1,287.78,215.45Zm0-40.33a17.17,17.17,0,1,0,17.17,17.17A17.18,17.18,0,0,0,287.78,175.12Z" style="fill:#040006"/><path d="M260.92,174.68H200.19a3,3,0,0,1,0-6h60.74a3,3,0,0,1,0,6Z" style="fill:#040006"/><path d="M252.92,195.47H200.19a3,3,0,0,1,0-6h52.74a3,3,0,0,1,0,6Z" style="fill:#040006"/><path d="M260.92,215.45H200.19a3,3,0,0,1,0-6h60.74a3,3,0,0,1,0,6Z" style="fill:#040006"/><circle cx="186.74" cy="171.68" r="4.23" style="fill:#040006"/><circle cx="186.74" cy="192.29" r="4.23" style="fill:#040006"/><circle cx="186.74" cy="212.45" r="4.23" style="fill:#040006"/><path d="M150.27,90.44H135.76a3,3,0,0,1,0-6h14.51c7.43,0,9.35-3,10.46-9l3.2-20.52a3.14,3.14,0,0,1,.07-.33,8.29,8.29,0,0,0-.86-5.93c-1.17-1.75-3.37-2.88-6.54-3.35L117.34,40.5a3,3,0,0,1-1.57-.68L79.42,9.24C77.11,7.22,75.71,6,72.17,6H3A3,3,0,0,1,3,0H72.17c5.8,0,8.67,2.51,11.2,4.72l.63.55,35,29.38,38.44,4.69c5,.74,8.65,2.77,10.79,6.05,2.87,4.4,1.91,9.47,1.66,10.56l-3.2,20.48C165.42,83,162.47,90.44,150.27,90.44Z" style="fill:#040006"/><path d="M115,110.61A23.17,23.17,0,1,1,138.2,87.44,23.19,23.19,0,0,1,115,110.61Zm0-40.33A17.17,17.17,0,1,0,132.2,87.44,17.19,17.19,0,0,0,115,70.28Z" style="fill:#040006"/><path d="M88.18,69.84H27.44a3,3,0,0,1,0-6H88.18a3,3,0,0,1,0,6Z" style="fill:#040006"/><path d="M80.18,90.62H27.44a3,3,0,0,1,0-6H80.18a3,3,0,0,1,0,6Z" style="fill:#040006"/><path d="M88.18,110.61H27.44a3,3,0,0,1,0-6H88.18a3,3,0,0,1,0,6Z" style="fill:#040006"/><circle cx="14" cy="66.84" r="4.23" style="fill:#040006"/><circle cx="14" cy="87.44" r="4.23" style="fill:#040006"/><circle cx="14" cy="107.61" r="4.23" style="fill:#040006"/></g></g></svg>