<svg xmlns="http://www.w3.org/2000/svg" viewBox="0 0 134.97 91.6"><defs><style>.a,.c{fill:none;stroke:#000;stroke-linecap:round;stroke-width:8px;}.a{stroke-miterlimit:10;stroke-dasharray:12 16;}.b{fill:#1d1d1b;}.c{stroke-linejoin:round;}</style></defs><path d="M93.67,91.6a16.19,16.19,0,1,1,16.19-16.19A16.2,16.2,0,0,1,93.67,91.6Zm0-24.71a8.52,8.52,0,1,0,8.51,8.52A8.53,8.53,0,0,0,93.67,66.89Z"/><line class="a" x1="67.61" y1="12" x2="67.61" y2="57"/><path class="b" d="M61.07,86.42a4.73,4.73,0,0,1-1.56,3.45,5,5,0,0,1-3.61,1.51,5.24,5.24,0,0,1-3.81-1.7L44.53,82l-7.48,7.65a5.25,5.25,0,0,1-3.81,1.7,5,5,0,0,1-3.62-1.51,4.72,4.72,0,0,1-1.55-3.45,4.89,4.89,0,0,1,1.61-3.58l8-7.78-7.36-7a4.87,4.87,0,0,1-1.62-3.58A4.79,4.79,0,0,1,30.23,61a5,5,0,0,1,7.39.25L44.53,68l7-6.84a5.23,5.23,0,0,1,3.81-1.69A5,5,0,0,1,58.9,61a4.63,4.63,0,0,1,1.52,3.42A5.09,5.09,0,0,1,58.81,68l-7.37,7,8,7.78A4.9,4.9,0,0,1,61.07,86.42Z"/><path class="c" d="M82.86,4h20.06c1.5,0,2.11,1.86,2.91,3.82L116.36,33l11.61,4c3.81,1.6,2.91,11,2.91,11l-.95,17.32C129.56,71,128.74,75,126,75h-4.11"/><path class="c" d="M52.86,4H32.05c-1.5,0-2.11,1.86-2.91,3.82L18.61,33,7,37.05c-3.81,1.6-2.91,11-2.91,11L5,65.34C5.41,71,6.23,75,9,75h3.86"/></svg>