<svg xmlns="http://www.w3.org/2000/svg" viewBox="0 0 81 81"><path d="M68.61,56.91c-1.14,0-2.4-.06-3.79-.17a2.5,2.5,0,0,1,.4-5c4.6.38,7.32.12,8.33-.79s1.22-3,1.61-6c.18-1.42.39-3,.71-4.85,0-.07,0-.15,0-.22h0a2.34,2.34,0,0,0-.21-1.55,2.92,2.92,0,0,0-2-.89L57,35.37A2.48,2.48,0,0,1,56,35a53.37,53.37,0,0,1-5.95-5C46.77,27.11,39.94,21,37.92,20.63H8.24a2.5,2.5,0,0,1,0-5h29.5c3-.12,7.13,3.07,15.66,10.71,1.87,1.68,3.8,3.4,4.8,4.14l16.22,2a7.45,7.45,0,0,1,5.49,3.13A7.27,7.27,0,0,1,80.78,41c-.29,1.67-.49,3.2-.66,4.55C79.11,53.32,77.66,56.91,68.61,56.91ZM38,20.62Zm-.14,0Z"/><path d="M56.16,65.13a12,12,0,0,1-6-1.58A10.29,10.29,0,0,1,45,54.21a10.26,10.26,0,0,1,5.08-9.27,12.34,12.34,0,0,1,12.09,0,10.3,10.3,0,0,1,5.08,9.31,10.27,10.27,0,0,1-5.08,9.3A12,12,0,0,1,56.16,65.13Zm0-16.78a7,7,0,0,0-3.53.91,5.27,5.27,0,0,0-2.6,5,5.3,5.3,0,0,0,2.6,5,7.3,7.3,0,0,0,7,0,5.26,5.26,0,0,0,2.6-4.95v-.07a5.25,5.25,0,0,0-2.61-5A6.93,6.93,0,0,0,56.16,48.35Z"/><path d="M11.16,65.13a12,12,0,0,1-6-1.58A10.29,10.29,0,0,1,0,54.21a10.26,10.26,0,0,1,5.08-9.27,12.34,12.34,0,0,1,12.09,0,10.3,10.3,0,0,1,5.08,9.31,10.27,10.27,0,0,1-5.08,9.3A12,12,0,0,1,11.16,65.13Zm0-16.78a7,7,0,0,0-3.52.91,5.27,5.27,0,0,0-2.6,5,5.3,5.3,0,0,0,2.6,5,7.3,7.3,0,0,0,7.05,0,5.26,5.26,0,0,0,2.6-4.95v-.07a5.25,5.25,0,0,0-2.61-5A6.94,6.94,0,0,0,11.15,48.35Z"/><path d="M46.78,56.75h-27a2.5,2.5,0,0,1,0-5h27a2.5,2.5,0,0,1,0,5Z"/><path d="M38.44,35.86h-26a2.5,2.5,0,0,1,0-5h26a2.5,2.5,0,0,1,0,5Z"/></svg>