<svg xmlns="http://www.w3.org/2000/svg" viewBox="0 0 81 81"><path d="M56.16,68.15c-12.56.18-12.56-19.54,0-19.36C68.72,48.61,68.72,68.33,56.16,68.15Zm0-14.77c-6.61-.1-6.61,10.28,0,10.18C62.77,63.65,62.77,53.28,56.16,53.38Z"/><path d="M40.38,50c-3.93.16-1.94-7.47-2.4-9.57A2.39,2.39,0,0,1,40.38,38c3.92-.17,1.93,7.47,2.39,9.57A2.39,2.39,0,0,1,40.38,50Zm0-16.75c-3.93.17-1.94-7.46-2.4-9.57a2.39,2.39,0,0,1,2.4-2.39c3.92-.16,1.93,7.47,2.39,9.57A2.39,2.39,0,0,1,40.38,33.22Z"/><path d="M36.66,65.05c-1.72,7-7.54-.16-9.89-2.62-2.09,1.66-5.78,8-8.92,4.69-3.39-3,3.3-6.82,4.83-8.86-1.61-2-7.71-5.44-4.46-8.44,3-3.16,6.5,2.63,8.55,4.24,2.06-1.62,5.59-7.32,8.6-4.22,3.25,3-2.87,6.48-4.46,8.42C31.93,59.6,36.91,63.12,36.66,65.05Z"/><path d="M75.48,60.09c-6,1.15-6.8-5.53-.54-4.78.59-3.63,1.69-14.46.68-18.14-1.3-.74-7.68-1.91-8.1-3.65-.36-.9-6.21-14.87-6.63-15.89H49.7a2.39,2.39,0,1,1,0-4.78h12c4-.86,8.06,15.22,9.84,17.84,7.21,2,10,3.72,9.27,11.05C79.79,46.29,82.38,59.56,75.48,60.09ZM61.69,17.63h0Z"/><path d="M7.83,60.09c-5.7,1.06-7-3.86-7.06-8L.2,41.74c-.78-7.32,2.08-9.1,9.27-11,1.85-2.69,5.68-18.51,9.84-17.84H31.75a2.39,2.39,0,1,1,0,4.78H20.1c-.11.26-.22.54-.32.8l-6.3,15.09c-.39,1.73-6.84,2.94-8.1,3.65-1,3.67.1,14.51.68,18.14C10.13,54.34,12.19,59.25,7.83,60.09Z"/></svg>