<svg xmlns="http://www.w3.org/2000/svg" viewBox="0 0 81 81"><path d="M75.88,73.12H5.12a2.49,2.49,0,1,1,0-5H75.88a2.49,2.49,0,1,1,0,5Z"/><path d="M67.06,72.27a2.43,2.43,0,0,1-2.49-2.38V10.26a2.49,2.49,0,0,1,5,0V69.89A2.44,2.44,0,0,1,67.06,72.27Z"/><path d="M41.64,72.27c-1.71,0-2.49-1-2.49-2V42.93c0-1,.78-2,2.49-2s2.49,1,2.49,2V70.26C44.13,71.23,43.35,72.27,41.64,72.27Z"/><path d="M16.22,72.27c-1.84,0-2.49-1-2.49-1.92V50.47c0-.88.65-1.92,2.49-1.92s2.49,1,2.49,1.92V70.35C18.71,71.24,18.06,72.27,16.22,72.27Z"/><path d="M7.91,46.85A2.75,2.75,0,0,1,5.85,46a2.67,2.67,0,0,1,.29-3.87L18.33,32a2.77,2.77,0,0,1,3.82.28,2.67,2.67,0,0,1-.28,3.86L9.68,46.22A2.8,2.8,0,0,1,7.91,46.85Z"/><path d="M30.69,39.82a16.25,16.25,0,0,1-4.32-.59,15.77,15.77,0,0,1-9.63-7.4A15.33,15.33,0,0,1,15.27,19.9a15.6,15.6,0,0,1,7.58-9.42A16.17,16.17,0,0,1,35,9.05a15.86,15.86,0,0,1,9.63,7.4,15.28,15.28,0,0,1,1.46,11.93,15.67,15.67,0,0,1-7.57,9.43A16.33,16.33,0,0,1,30.69,39.82Zm0-26.29a11.11,11.11,0,0,0-5.33,1.38,10.58,10.58,0,0,0-5.13,6.38,10.3,10.3,0,0,0,1,8,10.79,10.79,0,0,0,6.55,5,11.06,11.06,0,0,0,8.3-1A10.57,10.57,0,0,0,41.16,27a10.27,10.27,0,0,0-1-8,10.75,10.75,0,0,0-6.55-5A11.08,11.08,0,0,0,30.65,13.53Z"/></svg>