<svg xmlns="http://www.w3.org/2000/svg" viewBox="0 0 32.83 18.81"><title>logo_1</title><g id="Capa_2" data-name="Capa 2"><g id="Capa_1-2" data-name="Capa 1"><rect x="1.9" y="6.77" width="2.6" height="5.52" rx="1" ry="1" style="fill:#fff"/><rect x="2.9" y="7.77" width="0.6" height="3.52" style="fill:#fff"/><path d="M11.5,12.36a2.59,2.59,0,0,1-1.92-.78,2.85,2.85,0,0,1-.74-2.06,2.76,2.76,0,0,1,.89-2.2,2.66,2.66,0,0,1,1.76-.63,2.59,2.59,0,0,1,1.9.78,2.77,2.77,0,0,1,.74,2A3.25,3.25,0,0,1,13.83,11a2.43,2.43,0,0,1-1,1A2.71,2.71,0,0,1,11.5,12.36Zm0-3.17a2.05,2.05,0,0,0,0,.34,1,1,0,0,0,0,.34,1.92,1.92,0,0,0,0-.36A.81.81,0,0,0,11.49,9.19Zm0,0Z" style="fill:#fff;fill-rule:evenodd"/><path d="M10.39,8.08a1.81,1.81,0,0,0-.54,1.45,1.89,1.89,0,0,0,.46,1.36,1.58,1.58,0,0,0,1.2.47,1.72,1.72,0,0,0,.85-.21,1.44,1.44,0,0,0,.59-.6,2.32,2.32,0,0,0,.2-1.07,1.8,1.8,0,0,0-.46-1.31,1.58,1.58,0,0,0-1.19-.48A1.64,1.64,0,0,0,10.39,8.08Zm2.14,1.43a1.53,1.53,0,0,1-.3,1,1,1,0,0,1-1.49,0,1.49,1.49,0,0,1-.3-1,1.49,1.49,0,0,1,.3-1,1,1,0,0,1,1.48,0A1.45,1.45,0,0,1,12.53,9.51Z" style="fill:#fff;fill-rule:evenodd"/><rect x="1.9" y="5.43" width="2.6" height="2.68" rx="1" ry="1" style="fill:#fff"/><rect x="2.9" y="6.43" width="0.6" height="0.68" style="fill:#fff"/><path d="M8.33,12.29a1,1,0,0,1-1-1V9.11a1,1,0,0,1-.53-.88V7.77a1,1,0,0,1,.57-.9,1.81,1.81,0,0,1,.09-.34,1.78,1.78,0,0,1,.69-.86A2.05,2.05,0,0,1,9.3,5.35a3.9,3.9,0,0,1,.75.08,1,1,0,0,1,.79,1.15l-.09.52a1,1,0,0,1-.18.42,1,1,0,0,1,0,.25v.46a1,1,0,0,1-.68.95v2.11a1,1,0,0,1-1,1Z" style="fill:#fff;fill-rule:evenodd"/><path d="M8.33,11.29h.6V8.23H9.6V7.77H8.92V7.44A.62.62,0,0,1,9,7a.53.53,0,0,1,.38-.12,2.06,2.06,0,0,1,.35,0l.09-.52a2.94,2.94,0,0,0-.56-.06,1.08,1.08,0,0,0-.61.14.76.76,0,0,0-.3.38,1.64,1.64,0,0,0-.06.53v.37H7.8v.46h.53Z" style="fill:#fff;fill-rule:evenodd"/><path d="M6.67,12.29a1,1,0,0,1-.83-.44,1,1,0,0,1-.83.44h-.6a1,1,0,0,1-1-1V7.77a1,1,0,0,1,1-1h.54a1,1,0,0,1,.32.05A2.56,2.56,0,0,1,7,6.89a1.91,1.91,0,0,1,.82.64,2.13,2.13,0,0,1,.35.81,4.26,4.26,0,0,1,.05.79v2.16a1,1,0,0,1-1,1Z" style="fill:#fff;fill-rule:evenodd"/><path d="M7.27,11.29V9.13a3.53,3.53,0,0,0,0-.58A1.15,1.15,0,0,0,7,8.11a.92.92,0,0,0-.4-.3,1.48,1.48,0,0,0-.58-.11,1.27,1.27,0,0,0-1.12.57v-.5H4.41v3.52H5V9.37a1.19,1.19,0,0,1,.28-.92,1,1,0,0,1,.66-.24.79.79,0,0,1,.42.11.58.58,0,0,1,.25.29,1.61,1.61,0,0,1,.07.55v2.14Z" style="fill:#fff;fill-rule:evenodd"/><path d="M4.88,18.73a1,1,0,0,1-1-.71l-.15-.52H3.34L3.18,18a1,1,0,0,1-1,.71H1a1,1,0,0,1-1-1.3L2,11.47a1,1,0,0,1,1-.7H4.53a1,1,0,0,1,1,.7l1.85,5.95a1,1,0,0,1-1,1.3Z" style="fill:#fff;fill-rule:evenodd"/><path d="M2.9,11.78,1,17.73H2.22l.38-1.23H4.51l.37,1.23h1.5L4.53,11.78Zm0,3.62.63-2.08.62,2.08Z" style="fill:#fff;fill-rule:evenodd"/><path d="M9.17,18.81a4,4,0,0,1-1.81-.36,2.68,2.68,0,0,1-1.19-1.14,3.84,3.84,0,0,1-.37-1.84v-3.7a1,1,0,0,1,1-1H8.3a1,1,0,0,1,1,1v3.71c0,.08,0,.15,0,.2h0c0-.05,0-.12,0-.2V11.78a1,1,0,0,1,1-1h1.19a1,1,0,0,1,1,1v3.7a4.18,4.18,0,0,1-.3,1.76A2.54,2.54,0,0,1,11,18.42,4.08,4.08,0,0,1,9.17,18.81Z" style="fill:#fff;fill-rule:evenodd"/><path d="M10.34,15.48a2.29,2.29,0,0,1-.08.72.66.66,0,0,1-.33.35,1.35,1.35,0,0,1-.64.13,1.23,1.23,0,0,1-.59-.13.67.67,0,0,1-.32-.36,2.27,2.27,0,0,1-.08-.71V11.78H6.8v3.7A2.93,2.93,0,0,0,7,16.84a1.68,1.68,0,0,0,.76.72,3.09,3.09,0,0,0,1.36.25,3.09,3.09,0,0,0,1.41-.28,1.57,1.57,0,0,0,.76-.72,3.29,3.29,0,0,0,.21-1.33v-3.7H10.34Z" style="fill:#fff;fill-rule:evenodd"/><path d="M13.53,18.73a1,1,0,0,1-1-1V14h-.48a1,1,0,0,1-1-1V11.78a1,1,0,0,1,1-1h4.36a1,1,0,0,1,1,1V13a1,1,0,0,1-1,1h-.47v3.77a1,1,0,0,1-1,1Z" style="fill:#fff;fill-rule:evenodd"/><polygon points="12.05 12.95 13.53 12.95 13.53 17.73 14.94 17.73 14.94 12.95 16.41 12.95 16.41 11.78 12.05 11.78 12.05 12.95" style="fill:#fff;fill-rule:evenodd"/><path d="M19.24,18.81a3.17,3.17,0,0,1-2.67-1.31,4.6,4.6,0,0,1-.85-2.77A4.46,4.46,0,0,1,16.6,12a3.25,3.25,0,0,1,2.69-1.26A3.12,3.12,0,0,1,22,12.05a4.69,4.69,0,0,1,.81,2.69A4.57,4.57,0,0,1,22,17.52,3.22,3.22,0,0,1,19.24,18.81Zm0-4.86a3.69,3.69,0,0,0-.07.79,3.16,3.16,0,0,0,.08.78,3.27,3.27,0,0,0,.07-.77A3.22,3.22,0,0,0,19.26,14Z" style="fill:#fff;fill-rule:evenodd"/><path d="M19.29,11.69a2.25,2.25,0,0,0-1.9.87,3.47,3.47,0,0,0-.67,2.17,3.6,3.6,0,0,0,.66,2.18,2.17,2.17,0,0,0,1.86.9,2.22,2.22,0,0,0,1.91-.89,3.58,3.58,0,0,0,.65-2.18,3.69,3.69,0,0,0-.63-2.13A2.12,2.12,0,0,0,19.29,11.69Zm0,5q-1.09,0-1.09-1.93t1.09-1.93q1.06,0,1.06,1.93T19.28,16.68Z" style="fill:#fff;fill-rule:evenodd"/><path d="M19.4,11.74a1.6,1.6,0,0,1-1.53-1,1.5,1.5,0,0,1,0-1.27c.44-.89,1.65-1.31,2.9-1.64l.3-.09c1.69-.52,3.51-1.06,4.19-1.19l.19,0A1,1,0,0,1,26,8.4l-3.36,1.93-.58.34a5.7,5.7,0,0,1-2.63,1.07Z" style="fill:#fff;fill-rule:evenodd"/><path d="M18.79,10.34c.45,1.06,2.18-.24,3.32-.88l3.36-1.93c-.76.14-3.42,1-4.25,1.21C20.88,8.85,18.38,9.38,18.79,10.34Z" style="fill:#fff;fill-rule:evenodd"/><path d="M31.55,16.41a1,1,0,0,1-.24,0l-2.69-.66a1,1,0,0,1-.74-1.2,7.09,7.09,0,0,0-.22-3.8,1,1,0,0,1,.59-1.25l2.58-1a1,1,0,0,1,1.3.6,11.46,11.46,0,0,1,.39,6.56,1,1,0,0,1-1,.76Z" style="fill:#fff;fill-rule:evenodd"/><path d="M31.19,9.43l-2.58,1a8,8,0,0,1,.24,4.34l2.69.66A10.46,10.46,0,0,0,31.19,9.43Z" style="fill:#fff;fill-rule:evenodd"/><path d="M28.35,10.72a1,1,0,0,1-.92-.61,9.73,9.73,0,0,0-2.27-3.23,1,1,0,0,1-.1-1.34l1.6-2a1,1,0,0,1,.68-.38h.1a1,1,0,0,1,.64.23,13.52,13.52,0,0,1,3.75,5,1,1,0,0,1-.56,1.33l-2.57,1A1,1,0,0,1,28.35,10.72Z" style="fill:#fff;fill-rule:evenodd"/><path d="M27.44,4.12l-1.6,2a10.68,10.68,0,0,1,2.5,3.57l2.57-1A12.46,12.46,0,0,0,27.44,4.12Z" style="fill:#fff;fill-rule:evenodd"/><path d="M10.47,6.59a1,1,0,0,1-.63-.22L9.3,5.93a1,1,0,0,1-.16-1.4A11.6,11.6,0,0,1,14,.94a1,1,0,0,1,1.3.56l.48,1.21A1,1,0,0,1,15.06,4a7.68,7.68,0,0,0-3.85,2.22A1,1,0,0,1,10.47,6.59Z" style="fill:#fff;fill-rule:evenodd"/><path d="M14.81,3.08l-.48-1.21A10.57,10.57,0,0,0,9.92,5.15l.55.44A8.68,8.68,0,0,1,14.81,3.08Z" style="fill:#fff;fill-rule:evenodd"/><path d="M20.41,4.15a1,1,0,0,1-.25,0,10.87,10.87,0,0,0-2.73-.35,10,10,0,0,0-1.7.14h-.17a1,1,0,0,1-.93-.63L14.11,2A1,1,0,0,1,14.72.66,13.27,13.27,0,0,1,18.89,0a14,14,0,0,1,2.16.17,1,1,0,0,1,.82,1.23l-.49,2a1,1,0,0,1-1,.76Z" style="fill:#fff;fill-rule:evenodd"/><path d="M20.41,3.15l.49-2A12.53,12.53,0,0,0,15,1.61l.52,1.31A11.53,11.53,0,0,1,20.41,3.15Z" style="fill:#fff;fill-rule:evenodd"/><path d="M25.29,6.65a1,1,0,0,1-.64-.23,11.41,11.41,0,0,0-2.74-1.69q-.55-.24-1.1-.42a1,1,0,0,1-.66-1.19l.51-2.06a1,1,0,0,1,1-.76l.21,0a14.63,14.63,0,0,1,5.61,2.54,1,1,0,0,1,.19,1.42l-1.57,2a1,1,0,0,1-.68.38Z" style="fill:#fff;fill-rule:evenodd"/><path d="M25.29,5.65l1.57-2a13.63,13.63,0,0,0-5.23-2.37l-.51,2.06q.6.19,1.19.45A12.42,12.42,0,0,1,25.29,5.65Z" style="fill:#fff;fill-rule:evenodd"/><polygon points="3.68 8.59 12.12 8.21 13.43 11.34 16.87 11.77 20.31 12.09 21.43 15.34 20.81 17.46 16.81 16.46 14.06 16.27 11.43 15.15 10.58 17.53 7.31 15.96 6.12 17.65 2.87 16.77 1.31 16.52 3.68 8.59" style="fill:#fff;fill-rule:evenodd"/><path d="M2.9,7.11V6.43h.6v.68Zm0,4.18V7.77h.6v3.52Zm1.51,0V7.77h.54v.5a1.27,1.27,0,0,1,1.12-.57,1.48,1.48,0,0,1,.58.11.92.92,0,0,1,.4.3,1.15,1.15,0,0,1,.19.44,3.54,3.54,0,0,1,0,.58v2.16h-.6V9.15A1.61,1.61,0,0,0,6.6,8.6a.58.58,0,0,0-.25-.29.79.79,0,0,0-.42-.11,1,1,0,0,0-.66.24A1.19,1.19,0,0,0,5,9.37v1.92Zm3.92,0V8.23H7.8V7.77h.53V7.39a1.64,1.64,0,0,1,.06-.53.76.76,0,0,1,.3-.38,1.08,1.08,0,0,1,.61-.14,2.94,2.94,0,0,1,.56.06l-.09.52a2.06,2.06,0,0,0-.35,0A.53.53,0,0,0,9,7a.62.62,0,0,0-.11.43v.32H9.6v.46H8.92v3.06ZM9.85,9.53a1.89,1.89,0,0,0,.46,1.36,1.58,1.58,0,0,0,1.2.47,1.72,1.72,0,0,0,.85-.21,1.44,1.44,0,0,0,.59-.6,2.32,2.32,0,0,0,.2-1.07,1.8,1.8,0,0,0-.46-1.31,1.58,1.58,0,0,0-1.19-.48,1.64,1.64,0,0,0-1.11.39,1.81,1.81,0,0,0-.54,1.45Zm.61,0a1.49,1.49,0,0,1,.3-1,1,1,0,0,1,1.48,0,1.44,1.44,0,0,1,.3,1,1.53,1.53,0,0,1-.3,1,1,1,0,0,1-1.49,0A1.49,1.49,0,0,1,10.46,9.53Z" style="fill:#5e5f5f;fill-rule:evenodd"/><path d="M4.53,11.78l1.85,5.95H4.88l-.37-1.23H2.6l-.38,1.23H1l1.9-5.95ZM2.93,15.4H4.19l-.62-2.08Z" style="fill:#e8ac30;fill-rule:evenodd"/><path d="M11.54,11.78v3.7a3.29,3.29,0,0,1-.21,1.33,1.57,1.57,0,0,1-.76.72,3.09,3.09,0,0,1-1.41.28,3.09,3.09,0,0,1-1.36-.25A1.68,1.68,0,0,1,7,16.84a2.93,2.93,0,0,1-.25-1.36v-3.7H8.3v3.71a2.27,2.27,0,0,0,.08.71.67.67,0,0,0,.32.36,1.23,1.23,0,0,0,.59.13,1.35,1.35,0,0,0,.64-.13.66.66,0,0,0,.33-.35,2.29,2.29,0,0,0,.08-.72V11.78Z" style="fill:#dd862d;fill-rule:evenodd"/><polygon points="16.41 11.78 16.41 12.95 14.94 12.95 14.94 17.73 13.53 17.73 13.53 12.95 12.05 12.95 12.05 11.78 16.41 11.78" style="fill:#cf4529;fill-rule:evenodd"/><path d="M19.24,17.81a2.17,2.17,0,0,1-1.86-.9,3.6,3.6,0,0,1-.66-2.18,3.47,3.47,0,0,1,.67-2.17,2.25,2.25,0,0,1,1.9-.87,2.12,2.12,0,0,1,1.88.93,3.69,3.69,0,0,1,.63,2.13,3.58,3.58,0,0,1-.65,2.18,2.22,2.22,0,0,1-1.91.89Zm0-5q-1.09,0-1.09,1.93t1.09,1.93q1.06,0,1.06-1.93T19.28,12.82Z" style="fill:#b3242a;fill-rule:evenodd"/><path d="M25.48,7.54c-.76.14-3.42,1-4.25,1.21-.35.11-2.84.63-2.44,1.59s2.18-.24,3.32-.88Z" style="fill:#5e5f5f;fill-rule:evenodd"/><path d="M31.19,9.43a10.46,10.46,0,0,1,.36,6l-2.69-.66a8,8,0,0,0-.24-4.34Z" style="fill:#b3242a;stroke:#b3242a;stroke-miterlimit:22.925600000000003;stroke-width:0.08700000000000001px;fill-rule:evenodd"/><path d="M27.44,4.12a12.46,12.46,0,0,1,3.47,4.61l-2.57,1a10.68,10.68,0,0,0-2.5-3.57Z" style="fill:#cc2928;stroke:#cc2928;stroke-miterlimit:22.925600000000003;stroke-width:0.08700000000000001px;fill-rule:evenodd"/><path d="M14.81,3.08a8.68,8.68,0,0,0-4.35,2.51l-.55-.44a10.57,10.57,0,0,1,4.41-3.28Z" style="fill:#e8ac30;stroke:#e8ac30;stroke-miterlimit:22.925600000000003;stroke-width:0.08700000000000001px;fill-rule:evenodd"/><path d="M20.41,3.15a11.53,11.53,0,0,0-4.85-.23L15,1.61a12.53,12.53,0,0,1,5.86-.45Z" style="fill:#dd862d;stroke:#dd862d;stroke-miterlimit:22.925600000000003;stroke-width:0.08700000000000001px;fill-rule:evenodd"/><path d="M24.23,2.14a13.53,13.53,0,0,1,2.63,1.52l-1.57,2a12.42,12.42,0,0,0-3-1.84q-.59-.26-1.19-.45l.51-2.06A13.56,13.56,0,0,1,24.23,2.14Z" style="fill:#cf4529;stroke:#cf4529;stroke-miterlimit:22.925600000000003;stroke-width:0.08700000000000001px;fill-rule:evenodd"/></g></g></svg>