<svg xmlns="http://www.w3.org/2000/svg" viewBox="0 0 32.85 17.94"><title>logo</title><g id="Capa_2" data-name="Capa 2"><g id="Capa_1-2" data-name="Capa 1"><path d="M2,6.54V5.82h.64v.72ZM2,11V7.24h.64V11Zm1.6,0V7.24H4.2v.53a1.35,1.35,0,0,1,1.19-.61A1.57,1.57,0,0,1,6,7.29a1,1,0,0,1,.42.32,1.22,1.22,0,0,1,.2.47,3.76,3.76,0,0,1,0,.62V11H6V8.72A1.71,1.71,0,0,0,6,8.14a.62.62,0,0,0-.26-.31.84.84,0,0,0-.44-.11,1,1,0,0,0-.7.26,1.27,1.27,0,0,0-.29,1v2ZM7.8,11V7.74H7.23V7.24H7.8v-.4a1.74,1.74,0,0,1,.07-.56.81.81,0,0,1,.32-.4,1.15,1.15,0,0,1,.65-.15,3.13,3.13,0,0,1,.59.06l-.1.56a2.19,2.19,0,0,0-.37,0,.56.56,0,0,0-.41.12.66.66,0,0,0-.12.46v.34h.73v.49H8.43V11ZM9.41,9.12a2,2,0,0,0,.49,1.45,1.69,1.69,0,0,0,1.27.5,1.83,1.83,0,0,0,.9-.23,1.53,1.53,0,0,0,.63-.64,2.47,2.47,0,0,0,.22-1.14,1.92,1.92,0,0,0-.49-1.4,1.69,1.69,0,0,0-1.26-.51A1.74,1.74,0,0,0,10,7.58a1.92,1.92,0,0,0-.58,1.54Zm.65,0A1.58,1.58,0,0,1,10.38,8,1.05,1.05,0,0,1,12,8a1.54,1.54,0,0,1,.32,1A1.63,1.63,0,0,1,12,10.19a1.05,1.05,0,0,1-1.58,0A1.59,1.59,0,0,1,10.06,9.12Z" style="fill:#5e5f5f;fill-rule:evenodd"/><path d="M3.75,11.51l2,6.33H4.13l-.39-1.31h-2l-.4,1.31H0l2-6.33Zm-1.7,3.85H3.39l-.66-2.22Z" style="fill:#e8ac30;fill-rule:evenodd"/><path d="M11.22,11.51v3.94A3.5,3.5,0,0,1,11,16.87a1.67,1.67,0,0,1-.8.77,3.29,3.29,0,0,1-1.5.3,3.29,3.29,0,0,1-1.45-.27,1.79,1.79,0,0,1-.81-.77,3.12,3.12,0,0,1-.27-1.45V11.51h1.6v3.94a2.42,2.42,0,0,0,.09.75.71.71,0,0,0,.34.38,1.31,1.31,0,0,0,.63.14,1.43,1.43,0,0,0,.68-.14.7.7,0,0,0,.35-.37,2.44,2.44,0,0,0,.09-.77V11.51Z" style="fill:#dd862d;fill-rule:evenodd"/><polygon points="16.4 11.51 16.4 12.77 14.84 12.77 14.84 17.84 13.34 17.84 13.34 12.77 11.76 12.77 11.76 11.51 16.4 11.51" style="fill:#cf4529;fill-rule:evenodd"/><path d="M19.41,17.94a2.31,2.31,0,0,1-2-1,3.84,3.84,0,0,1-.7-2.32,3.69,3.69,0,0,1,.71-2.31,2.39,2.39,0,0,1,2-.93,2.26,2.26,0,0,1,2,1,3.93,3.93,0,0,1,.67,2.27A3.81,3.81,0,0,1,21.44,17a2.36,2.36,0,0,1-2,.95Zm0-5.31q-1.16,0-1.16,2.05t1.16,2.06q1.13,0,1.12-2.05T19.46,12.62Z" style="fill:#b3242a;fill-rule:evenodd"/><path d="M26,7c-.81.15-3.64,1-4.52,1.29-.37.11-3,.67-2.59,1.7s2.32-.25,3.54-.93Z" style="fill:#5e5f5f;fill-rule:evenodd"/><path d="M32.13,9a11.13,11.13,0,0,1,.38,6.37l-2.86-.7a8.57,8.57,0,0,0-.26-4.62Z" style="fill:#b3242a;stroke:#b3242a;stroke-miterlimit:22.925600000000003;stroke-width:0.08700000000000001px;fill-rule:evenodd"/><path d="M28.14,3.37a13.26,13.26,0,0,1,3.69,4.91l-2.73,1a11.37,11.37,0,0,0-2.66-3.8Z" style="fill:#cc2928;stroke:#cc2928;stroke-miterlimit:22.925600000000003;stroke-width:0.08700000000000001px;fill-rule:evenodd"/><path d="M14.7,2.25a9.24,9.24,0,0,0-4.62,2.67l-.58-.47A11.25,11.25,0,0,1,14.19,1Z" style="fill:#e8ac30;stroke:#e8ac30;stroke-miterlimit:22.925600000000003;stroke-width:0.08700000000000001px;fill-rule:evenodd"/><path d="M20.65,2.33a12.27,12.27,0,0,0-5.17-.24L14.94.69A13.33,13.33,0,0,1,21.17.21Z" style="fill:#dd862d;stroke:#dd862d;stroke-miterlimit:22.925600000000003;stroke-width:0.08700000000000001px;fill-rule:evenodd"/><path d="M24.72,1.25a14.4,14.4,0,0,1,2.79,1.62L25.85,5a13.22,13.22,0,0,0-3.17-2q-.63-.28-1.27-.48L22,.36A14.43,14.43,0,0,1,24.72,1.25Z" style="fill:#cf4529;stroke:#cf4529;stroke-miterlimit:22.925600000000003;stroke-width:0.08700000000000001px;fill-rule:evenodd"/></g></g></svg>