<svg xmlns="http://www.w3.org/2000/svg" viewBox="0 0 33.83 19.81"><title>logo_1</title><g id="Capa_2" data-name="Capa 2"><g id="Capa_1-2" data-name="Capa 1"><rect x="1.9" y="6.77" width="3.6" height="6.52" rx="1.5" ry="1.5" style="fill:#fff"/><rect x="3.4" y="8.27" width="0.6" height="3.52" style="fill:#fff"/><path d="M7.17,13.29A1.49,1.49,0,0,1,6.34,13a1.49,1.49,0,0,1-.83.25h-.6a1.5,1.5,0,0,1-1.5-1.5V8.27a1.5,1.5,0,0,1,1.5-1.5h.54a1.49,1.49,0,0,1,.31,0,3,3,0,0,1,.81-.11,3,3,0,0,1,1.17.23,2.4,2.4,0,0,1,1,.81,2.64,2.64,0,0,1,.43,1,4.67,4.67,0,0,1,.06.89v2.16a1.5,1.5,0,0,1-1.5,1.5Z" style="fill:#fff;fill-rule:evenodd"/><path d="M7.77,11.79V9.63a3.53,3.53,0,0,0,0-.58,1.15,1.15,0,0,0-.19-.44.92.92,0,0,0-.4-.3,1.48,1.48,0,0,0-.58-.11,1.27,1.27,0,0,0-1.12.57v-.5H4.91v3.52h.6V9.87a1.19,1.19,0,0,1,.28-.92,1,1,0,0,1,.66-.24.79.79,0,0,1,.42.11.58.58,0,0,1,.25.29,1.61,1.61,0,0,1,.07.55v2.14Z" style="fill:#fff;fill-rule:evenodd"/><rect x="1.9" y="5.43" width="3.6" height="3.68" rx="1.5" ry="1.5" style="fill:#fff"/><rect x="3.4" y="6.93" width="0.6" height="0.68" style="fill:#fff"/><path d="M12,13.36a3.08,3.08,0,0,1-2.28-.93A3.33,3.33,0,0,1,8.85,10,3.25,3.25,0,0,1,9.91,7.45,3.15,3.15,0,0,1,12,6.69a3.08,3.08,0,0,1,2.26.93A3.27,3.27,0,0,1,15.15,10a3.72,3.72,0,0,1-.38,1.76A2.92,2.92,0,0,1,13.57,13,3.21,3.21,0,0,1,12,13.36Z" style="fill:#fff;fill-rule:evenodd"/><path d="M10.89,8.58A1.81,1.81,0,0,0,10.35,10a1.89,1.89,0,0,0,.46,1.36,1.58,1.58,0,0,0,1.2.47,1.72,1.72,0,0,0,.85-.21,1.44,1.44,0,0,0,.59-.6,2.32,2.32,0,0,0,.2-1.07,1.8,1.8,0,0,0-.46-1.31A1.58,1.58,0,0,0,12,8.19,1.64,1.64,0,0,0,10.89,8.58ZM13,10a1.53,1.53,0,0,1-.3,1,1,1,0,0,1-1.49,0,1.49,1.49,0,0,1-.3-1,1.49,1.49,0,0,1,.3-1,1,1,0,0,1,1.48,0A1.45,1.45,0,0,1,13,10Z" style="fill:#fff;fill-rule:evenodd"/><path d="M8.83,13.29a1.5,1.5,0,0,1-1.5-1.5V9.87A1.5,1.5,0,0,1,6.8,8.73V8.27a1.5,1.5,0,0,1,.62-1.22c0-.07,0-.14.06-.2a2.27,2.27,0,0,1,.88-1.11,2.54,2.54,0,0,1,1.44-.4,4.38,4.38,0,0,1,.84.09,1.5,1.5,0,0,1,1.19,1.72l-.09.52a1.49,1.49,0,0,1-.15.44s0,.09,0,.14v.46A1.5,1.5,0,0,1,10.92,10v1.81a1.5,1.5,0,0,1-1.5,1.5Z" style="fill:#fff;fill-rule:evenodd"/><path d="M8.83,11.79h.6V8.73h.68V8.27H9.42V7.94a.62.62,0,0,1,.11-.43.53.53,0,0,1,.38-.12,2.06,2.06,0,0,1,.35,0l.09-.52a2.94,2.94,0,0,0-.56-.06A1.08,1.08,0,0,0,9.19,7a.76.76,0,0,0-.3.38,1.64,1.64,0,0,0-.06.53v.37H8.3v.46h.53Z" style="fill:#fff;fill-rule:evenodd"/><path d="M5.38,19.73a1.5,1.5,0,0,1-1.33-.81,1.5,1.5,0,0,1-1.33.81H1.5a1.5,1.5,0,0,1-1.43-2L2,11.82a1.5,1.5,0,0,1,1.43-1H5a1.5,1.5,0,0,1,1.43,1.05l1.85,5.95a1.5,1.5,0,0,1-1.43,1.95Z" style="fill:#fff;fill-rule:evenodd"/><path d="M3.4,12.28,1.5,18.23H2.72L3.1,17H5l.37,1.23h1.5L5,12.28Zm0,3.62.63-2.08.62,2.08Z" style="fill:#fff;fill-rule:evenodd"/><path d="M9.67,19.81a4.5,4.5,0,0,1-2-.41,3.16,3.16,0,0,1-1.41-1.35A4.31,4.31,0,0,1,5.8,16v-3.7a1.5,1.5,0,0,1,1.5-1.5H8.8a1.5,1.5,0,0,1,1,.4,1.49,1.49,0,0,1,1-.4H12a1.5,1.5,0,0,1,1.5,1.5V16a4.58,4.58,0,0,1-.35,2,3,3,0,0,1-1.43,1.42A4.58,4.58,0,0,1,9.67,19.81Z" style="fill:#fff;fill-rule:evenodd"/><path d="M10.84,16a2.29,2.29,0,0,1-.08.72.66.66,0,0,1-.33.35,1.35,1.35,0,0,1-.64.13A1.23,1.23,0,0,1,9.21,17a.67.67,0,0,1-.32-.36A2.27,2.27,0,0,1,8.8,16V12.28H7.3V16a2.93,2.93,0,0,0,.25,1.36,1.68,1.68,0,0,0,.76.72,3.09,3.09,0,0,0,1.36.25A3.09,3.09,0,0,0,11.08,18a1.57,1.57,0,0,0,.76-.72A3.29,3.29,0,0,0,12,16v-3.7H10.84Z" style="fill:#fff;fill-rule:evenodd"/><path d="M14,19.73a1.5,1.5,0,0,1-1.5-1.5V15a1.5,1.5,0,0,1-1.48-1.5V12.28a1.5,1.5,0,0,1,1.5-1.5h4.36a1.5,1.5,0,0,1,1.5,1.5v1.18A1.5,1.5,0,0,1,16.94,15v3.27a1.5,1.5,0,0,1-1.5,1.5Z" style="fill:#fff;fill-rule:evenodd"/><polygon points="12.55 13.45 14.03 13.45 14.03 18.23 15.44 18.23 15.44 13.45 16.91 13.45 16.91 12.28 12.55 12.28 12.55 13.45" style="fill:#fff;fill-rule:evenodd"/><path d="M19.74,19.81a3.65,3.65,0,0,1-3.07-1.52,5.08,5.08,0,0,1-.95-3.07,5,5,0,0,1,1-3.08,3.73,3.73,0,0,1,3.09-1.46,3.6,3.6,0,0,1,3.12,1.58,5.18,5.18,0,0,1,.89,3,5.06,5.06,0,0,1-.94,3.07A3.68,3.68,0,0,1,19.74,19.81Z" style="fill:#fff;fill-rule:evenodd"/><path d="M19.79,12.19a2.25,2.25,0,0,0-1.9.87,3.47,3.47,0,0,0-.67,2.17,3.6,3.6,0,0,0,.66,2.18,2.17,2.17,0,0,0,1.86.9,2.22,2.22,0,0,0,1.91-.89,3.58,3.58,0,0,0,.65-2.18,3.69,3.69,0,0,0-.63-2.13A2.12,2.12,0,0,0,19.79,12.19Zm0,5q-1.09,0-1.09-1.93t1.09-1.93q1.06,0,1.06,1.93T19.78,17.18Z" style="fill:#fff;fill-rule:evenodd"/><path d="M19.9,12.74a2.11,2.11,0,0,1-2-1.32,2,2,0,0,1,0-1.68c.53-1.07,1.86-1.54,3.22-1.9l.28-.08c1.7-.52,3.54-1.07,4.24-1.2l.28,0a1.5,1.5,0,0,1,.75,2.8l-3.36,1.93-.57.34a6,6,0,0,1-2.88,1.14Z" style="fill:#fff;fill-rule:evenodd"/><path d="M19.29,10.84c.45,1.06,2.18-.24,3.32-.88L26,8c-.76.14-3.42,1-4.25,1.21C21.38,9.35,18.88,9.88,19.29,10.84Z" style="fill:#fff;fill-rule:evenodd"/><path d="M32,17.41a1.51,1.51,0,0,1-.36,0L29,16.71a1.5,1.5,0,0,1-1.1-1.79,6.59,6.59,0,0,0-.21-3.53,1.5,1.5,0,0,1,.89-1.87l2.58-1a1.5,1.5,0,0,1,2,.9,12,12,0,0,1,.4,6.84A1.5,1.5,0,0,1,32,17.41Z" style="fill:#fff;fill-rule:evenodd"/><path d="M31.69,9.93l-2.58,1a8,8,0,0,1,.24,4.34l2.69.66A10.46,10.46,0,0,0,31.69,9.93Z" style="fill:#fff;fill-rule:evenodd"/><path d="M28.85,11.72a1.5,1.5,0,0,1-1.38-.92,9.22,9.22,0,0,0-2.15-3.07,1.5,1.5,0,0,1-.14-2l1.6-2a1.5,1.5,0,0,1,1-.56h.16a1.5,1.5,0,0,1,1,.35,14,14,0,0,1,3.89,5.17,1.5,1.5,0,0,1-.84,2l-2.57,1A1.5,1.5,0,0,1,28.85,11.72Z" style="fill:#fff;fill-rule:evenodd"/><path d="M27.94,4.62l-1.6,2a10.68,10.68,0,0,1,2.5,3.57l2.57-1A12.46,12.46,0,0,0,27.94,4.62Z" style="fill:#fff;fill-rule:evenodd"/><path d="M11,7.59A1.5,1.5,0,0,1,10,7.26l-.55-.44a1.5,1.5,0,0,1-.24-2.09,12.11,12.11,0,0,1,5-3.75,1.5,1.5,0,0,1,2,.84L16.71,3a1.5,1.5,0,0,1-1,2,7.18,7.18,0,0,0-3.6,2.07A1.5,1.5,0,0,1,11,7.59Z" style="fill:#fff;fill-rule:evenodd"/><path d="M15.31,3.58l-.48-1.21a10.57,10.57,0,0,0-4.41,3.28l.55.44A8.68,8.68,0,0,1,15.31,3.58Z" style="fill:#fff;fill-rule:evenodd"/><path d="M20.91,5.15a1.5,1.5,0,0,1-.38,0,10.38,10.38,0,0,0-2.6-.34,9.48,9.48,0,0,0-1.62.14l-.26,0A1.5,1.5,0,0,1,14.66,4l-.52-1.31a1.5,1.5,0,0,1,.92-2A13.77,13.77,0,0,1,19.39,0a14.53,14.53,0,0,1,2.24.18A1.5,1.5,0,0,1,22.85,2l-.49,2a1.5,1.5,0,0,1-1.46,1.14Z" style="fill:#fff;fill-rule:evenodd"/><path d="M20.91,3.65l.49-2a12.53,12.53,0,0,0-5.86.45l.52,1.31A11.53,11.53,0,0,1,20.91,3.65Z" style="fill:#fff;fill-rule:evenodd"/><path d="M25.79,7.65a1.5,1.5,0,0,1-1-.35,10.94,10.94,0,0,0-2.62-1.62c-.35-.15-.7-.29-1.05-.4a1.5,1.5,0,0,1-1-1.78l.51-2.06A1.5,1.5,0,0,1,22.45.33,15.13,15.13,0,0,1,28.25,3a1.5,1.5,0,0,1,.28,2.13L27,7.08a1.5,1.5,0,0,1-1,.56Z" style="fill:#fff;fill-rule:evenodd"/><path d="M25.79,6.15l1.57-2a13.63,13.63,0,0,0-5.23-2.37l-.51,2.06q.6.19,1.19.45A12.42,12.42,0,0,1,25.79,6.15Z" style="fill:#fff;fill-rule:evenodd"/><path d="M3.4,7.61V6.93H4v.68Zm0,4.18V8.27H4v3.52Zm1.51,0V8.27h.54v.5a1.27,1.27,0,0,1,1.12-.57,1.48,1.48,0,0,1,.58.11.92.92,0,0,1,.4.3A1.15,1.15,0,0,1,7.73,9a3.54,3.54,0,0,1,0,.58v2.16h-.6V9.65A1.61,1.61,0,0,0,7.1,9.1a.58.58,0,0,0-.25-.29.79.79,0,0,0-.42-.11,1,1,0,0,0-.66.24,1.19,1.19,0,0,0-.28.92v1.92Zm3.92,0V8.73H8.3V8.27h.53V7.89a1.64,1.64,0,0,1,.06-.53A.76.76,0,0,1,9.19,7a1.08,1.08,0,0,1,.61-.14,2.94,2.94,0,0,1,.56.06l-.09.52a2.06,2.06,0,0,0-.35,0,.53.53,0,0,0-.38.12.62.62,0,0,0-.11.43v.32h.69v.46H9.42v3.06ZM10.35,10a1.89,1.89,0,0,0,.46,1.36,1.58,1.58,0,0,0,1.2.47,1.72,1.72,0,0,0,.85-.21,1.44,1.44,0,0,0,.59-.6,2.32,2.32,0,0,0,.2-1.07,1.8,1.8,0,0,0-.46-1.31A1.58,1.58,0,0,0,12,8.19a1.64,1.64,0,0,0-1.11.39A1.81,1.81,0,0,0,10.35,10ZM11,10a1.49,1.49,0,0,1,.3-1,1,1,0,0,1,1.48,0,1.44,1.44,0,0,1,.3,1,1.53,1.53,0,0,1-.3,1,1,1,0,0,1-1.49,0A1.49,1.49,0,0,1,11,10Z" style="fill:#5e5f5f;fill-rule:evenodd"/><path d="M5,12.28l1.85,5.95H5.38L5,17H3.1l-.38,1.23H1.5l1.9-5.95ZM3.43,15.9H4.69l-.62-2.08Z" style="fill:#e8ac30;fill-rule:evenodd"/><path d="M12,12.28V16a3.29,3.29,0,0,1-.21,1.33,1.57,1.57,0,0,1-.76.72,3.09,3.09,0,0,1-1.41.28,3.09,3.09,0,0,1-1.36-.25,1.68,1.68,0,0,1-.76-.72A2.93,2.93,0,0,1,7.3,16v-3.7H8.8V16a2.27,2.27,0,0,0,.08.71.67.67,0,0,0,.32.36,1.23,1.23,0,0,0,.59.13,1.35,1.35,0,0,0,.64-.13.66.66,0,0,0,.33-.35,2.29,2.29,0,0,0,.08-.72V12.28Z" style="fill:#dd862d;fill-rule:evenodd"/><polygon points="16.91 12.28 16.91 13.45 15.44 13.45 15.44 18.23 14.03 18.23 14.03 13.45 12.55 13.45 12.55 12.28 16.91 12.28" style="fill:#cf4529;fill-rule:evenodd"/><path d="M19.74,18.31a2.17,2.17,0,0,1-1.86-.9,3.6,3.6,0,0,1-.66-2.18,3.47,3.47,0,0,1,.67-2.17,2.25,2.25,0,0,1,1.9-.87,2.12,2.12,0,0,1,1.88.93,3.69,3.69,0,0,1,.63,2.13,3.58,3.58,0,0,1-.65,2.18,2.22,2.22,0,0,1-1.91.89Zm0-5q-1.09,0-1.09,1.93t1.09,1.93q1.06,0,1.06-1.93T19.78,13.32Z" style="fill:#b3242a;fill-rule:evenodd"/><path d="M26,8c-.76.14-3.42,1-4.25,1.21-.35.11-2.84.63-2.44,1.59s2.18-.24,3.32-.88Z" style="fill:#5e5f5f;fill-rule:evenodd"/><path d="M31.69,9.93a10.46,10.46,0,0,1,.36,6l-2.69-.66a8,8,0,0,0-.24-4.34Z" style="fill:#b3242a;stroke:#b3242a;stroke-miterlimit:22.925600000000003;stroke-width:0.08700000000000001px;fill-rule:evenodd"/><path d="M27.94,4.62a12.46,12.46,0,0,1,3.47,4.61l-2.57,1a10.68,10.68,0,0,0-2.5-3.57Z" style="fill:#cc2928;stroke:#cc2928;stroke-miterlimit:22.925600000000003;stroke-width:0.08700000000000001px;fill-rule:evenodd"/><path d="M15.31,3.58A8.68,8.68,0,0,0,11,6.09l-.55-.44a10.57,10.57,0,0,1,4.41-3.28Z" style="fill:#e8ac30;stroke:#e8ac30;stroke-miterlimit:22.925600000000003;stroke-width:0.08700000000000001px;fill-rule:evenodd"/><path d="M20.91,3.65a11.53,11.53,0,0,0-4.85-.23l-.52-1.31a12.53,12.53,0,0,1,5.86-.45Z" style="fill:#dd862d;stroke:#dd862d;stroke-miterlimit:22.925600000000003;stroke-width:0.08700000000000001px;fill-rule:evenodd"/><path d="M24.73,2.64a13.53,13.53,0,0,1,2.63,1.52l-1.57,2a12.42,12.42,0,0,0-3-1.84q-.59-.26-1.19-.45l.51-2.06A13.56,13.56,0,0,1,24.73,2.64Z" style="fill:#cf4529;stroke:#cf4529;stroke-miterlimit:22.925600000000003;stroke-width:0.08700000000000001px;fill-rule:evenodd"/></g></g></svg>