<svg xmlns="http://www.w3.org/2000/svg" viewBox="0 0 104 35.77"><defs><style>.a{fill:#fff;}.b{fill:#2d2d2d;}.c{fill:#2962ff;}</style></defs><path class="a" d="M45.26,16.25c3.79.25,1.72,3.91.86,6h1.47a1.08,1.08,0,0,1,.7,2c-.6.54-2.38.35-3.25.35a1.56,1.56,0,0,1-1.58-2.48,27.22,27.22,0,0,0,1.11-2.93c-.63-1.48-2.17-.19-2.56,1l-1.27,3.12c-.35,1.8-3.47,2-2.63-.27l.12-.29,2.17-5.36A1.42,1.42,0,0,1,43,17.11a3.41,3.41,0,0,1,2.25-.86m0-2.39a5.83,5.83,0,0,0-2.06.38c-5-1.68-5.74,4.81-7.3,7.92-1.75,4.36,3.44,6.41,6,3.75,1.29,1.52,6.46,1.52,7.93.13a3.49,3.49,0,0,0-.39-5.7,4.51,4.51,0,0,0-4.21-6.48Zm-9.24,8Z"/><path class="a" d="M32.58,2.25c3.84,0,7.77,1.65,11.93,5A.88.88,0,0,1,44,8.82a.88.88,0,0,1-.55-.19C39.53,5.51,36.05,4,32.62,4a12.77,12.77,0,0,0-2.29.22c-4.25.83-8.8,4.07-13.88,9.92a.85.85,0,0,1-.4.26,17.72,17.72,0,0,1-3.09.41c-2.78.25-8,.71-8.84,2.25a1,1,0,0,0,.06,1,.77.77,0,0,1,.07.27c0,.4.09.79.13,1.17.34,3.11.58,5.36,1.86,6.34a4.25,4.25,0,0,0,2.68.69,15.29,15.29,0,0,0,2.18-.18h.13a.89.89,0,0,1,.13,1.76,16.85,16.85,0,0,1-2.41.2,6,6,0,0,1-3.79-1.06C3.29,25.83,3,23.13,2.63,19.72l-.12-1a2.74,2.74,0,0,1,.08-2.51C3.84,14,8.13,13.48,12.8,13.06c1-.09,2-.18,2.5-.28C20.65,6.67,25.32,3.4,30,2.5a13.12,13.12,0,0,1,2.58-.25M51,10.3C43.58,1.46,37,0,32.58,0a16.07,16.07,0,0,0-3,.29c-5,1-9.93,4.28-15.41,10.38l-1.56.15C7.12,11.31,2.44,12,.65,15.05a4.9,4.9,0,0,0-.34,4.17c0,.24,0,.48.08.71v0c.41,3.79.77,7.07,3.39,9.09A8.13,8.13,0,0,0,9,30.58a18.61,18.61,0,0,0,2.74-.23,3.11,3.11,0,0,0,2.06-1.23c.5-.68,2.8,1.45,2.67.62L44.7,28Z"/><path class="a" d="M17.61,21a7,7,0,0,1,3.51.92A5.83,5.83,0,0,1,24,27.25a5.83,5.83,0,0,1-2.9,5.35,7.16,7.16,0,0,1-7,0,5.83,5.83,0,0,1-2.9-5.35,5.83,5.83,0,0,1,2.9-5.34A7,7,0,0,1,17.61,21m-.06,10.77a5.25,5.25,0,0,0,2.62-.68,4.06,4.06,0,0,0,2-3.81v0a4.07,4.07,0,0,0-2-3.82,5.48,5.48,0,0,0-5.25,0,4.06,4.06,0,0,0-2,3.82v0a4,4,0,0,0,2,3.81,5.26,5.26,0,0,0,2.63.68m.06-13h0A9.12,9.12,0,0,0,13,20a8.08,8.08,0,0,0-4,7.28,8.1,8.1,0,0,0,4,7.29,9.37,9.37,0,0,0,9.28,0,8.08,8.08,0,0,0,4-7.29,8.09,8.09,0,0,0-4-7.28,9.26,9.26,0,0,0-4.65-1.23Zm-.06,10.77a3,3,0,0,1-1.5-.37,1.87,1.87,0,0,1-.91-1.84h0v-.06h0a1.85,1.85,0,0,1,.91-1.84,3.21,3.21,0,0,1,3,0A1.85,1.85,0,0,1,20,27.21h0v.07h0A1.87,1.87,0,0,1,19,29.14a3,3,0,0,1-1.49.37Z"/><path class="a" d="M40.89,26.37a.91.91,0,0,1,.9.7.89.89,0,0,1-.87,1.06H23.65a.9.9,0,0,1-.9-.7.88.88,0,0,1,.87-1.06H40.89m0-2.25H23.62a3.13,3.13,0,1,0,0,6.26H40.92a3.13,3.13,0,1,0,0-6.26Z"/><path class="b" d="M9,28.33a6,6,0,0,1-3.79-1.06C3.29,25.83,3,23.13,2.62,19.72c0-.34-.07-.68-.11-1a2.74,2.74,0,0,1,.08-2.51C3.84,14,8.13,13.48,12.8,13.06c1-.09,2-.18,2.5-.28C20.65,6.67,25.32,3.4,30,2.5s9.42.65,14.51,4.75a.9.9,0,0,1,.13,1.25.88.88,0,0,1-1.24.13c-4.73-3.81-8.88-5.21-13.07-4.4s-8.8,4.07-13.88,9.92a.85.85,0,0,1-.4.26,17.72,17.72,0,0,1-3.09.41c-2.78.25-8,.71-8.84,2.25a1,1,0,0,0,.06,1,.77.77,0,0,1,.07.27c0,.4.09.79.13,1.17.34,3.11.58,5.36,1.86,6.34.91.71,2.45.87,4.86.51a.88.88,0,0,1,.26,1.75A16.85,16.85,0,0,1,9,28.33Z"/><path class="b" d="M17.61,33.52a7,7,0,0,1-3.51-.92,5.83,5.83,0,0,1-2.9-5.35,5.83,5.83,0,0,1,2.9-5.34,7.14,7.14,0,0,1,7,0A5.83,5.83,0,0,1,24,27.25a5.83,5.83,0,0,1-2.9,5.35A7,7,0,0,1,17.61,33.52Zm-.06-10.77a5.25,5.25,0,0,0-2.63.67,4.06,4.06,0,0,0-2,3.82v0a4,4,0,0,0,2,3.81,5.39,5.39,0,0,0,5.25,0,4.06,4.06,0,0,0,2-3.81v0a4.07,4.07,0,0,0-2-3.82A5.24,5.24,0,0,0,17.55,22.75Z"/><path class="b" d="M40.92,28.13H23.65a.9.9,0,0,1-.9-.7.88.88,0,0,1,.87-1.06H40.89a.91.91,0,0,1,.9.7A.89.89,0,0,1,40.92,28.13Z"/><path class="a" d="M58.62,9.88c3.27-.4,2.33,2.94-.38,2.42-2,0-2.4,2.73-3.11,4.16.1,0,1.65,0,1.7,0a1.1,1.1,0,0,1,.72,2c-.69.58-2.44.31-3.38.37L49.25,31q-.61,1.5-1.71,1.5c-1.16-.06-1.37-1-.85-2.07l4.7-11.56c-.14,0-.81,0-.93,0-1.36,0-1.55-1.31-.72-2,.53-.49,1.83-.36,2.61-.38,1.29-3.08,2.1-7.08,6.27-6.58m0-2.39c-4.22-.26-6.45,2.21-7.89,6.6-3.26-.13-5.33,4.34-2.59,6.4L45.21,27.7c-.1.28-.59,1.42-.68,1.68-1.31,2.48.06,5.4,2.91,5.48.93,0,2.86-.23,4-3l4.31-10.63c3.74.48,6.5-4.08,3.21-6.55,5.5-.08,5.5-7.83-.36-7.21Z"/><path class="a" d="M61.28,16.3c6-.26,4.25,9.05-.89,8.38-6.13.39-4.08-8.36.89-8.38m-.74,6.06c2,.21,3-3.64.75-3.77-1.81-.09-3.32,3.77-.75,3.77m.74-8.45c-7.74-.06-10.37,13.12-1.2,13.16,8.63.91,10.34-13.44,1.2-13.16Z"/><path class="a" d="M70.3,16.2a2.65,2.65,0,0,1,2,1c.51-1,2.43-1.18,2.51.23A45,45,0,0,1,73,22.26h1.19c2.14-.08,1.45,2.36-.21,2.37-.9-.12-2.49.3-2.89-.75-.86.87-1.78.73-2.8.73-5.08-.6-1.94-8.6,2-8.41m-1,6.2a1.21,1.21,0,0,0,1.25-.73,15.77,15.77,0,0,0,.91-2.47c-1.34-2.82-5.15,3.1-2.16,3.2m1-8.59c-8.89.55-9.89,15.51.65,12.93A9.79,9.79,0,0,0,74,27c3.48.15,5.52-4.73,2.37-6.6a8.37,8.37,0,0,0,.88-3,3.53,3.53,0,0,0-4.91-3.16,4.86,4.86,0,0,0-2-.44Z"/><path class="a" d="M79.39,16.26c.83,0,1.5.77.81,2l-1.12,2.77c-.22.51-.48,1.22.35,1.22,3,.22,2.15-5.76,4.86-5.89,1.12.07,1.32,1.07.82,2.05l-1.56,3.83H85c2,0,1.27,2.36-.38,2.36-1-.17-2.93.43-3.38-.71-.65.93-2,.66-3,.7-4-.25-1.18-4.87-.45-6.88a1.83,1.83,0,0,1,1.68-1.47m0-2.39c-2.29-.06-3.67,1.93-4.35,4.06-2.92,5.39-1.12,10.35,6,8.83a13,13,0,0,0,3.5.25c3.53.15,5.55-4.83,2.31-6.66.11-.25.28-.68.38-.93a3.58,3.58,0,0,0-5.41-4.56,3.51,3.51,0,0,0-2.48-1Z"/><path class="a" d="M91.53,13.47c.92,0,1.6,1,.4,2.91,2.88-.14,1.89,2.84-.9,2.35l-1.44,3.53c.12,0,1.29,0,1.38,0a1.08,1.08,0,0,1,.71,2c-.56.51-2.15.35-3,.36-1.76.25-2.59-1.27-1.66-2.75l1.27-3.12c-2.57,0-1.18-2.86,1-2.35.4-1,1-3,2.27-2.91m0-2.39a4.3,4.3,0,0,0-3.93,3c-2.58.58-4.07,3.7-2.33,5.76-.08.23-.3.73-.38.95A4,4,0,0,0,88.7,27c1.53,0,3.26.17,4.55-.95a3.53,3.53,0,0,0,.28-5.2C96,20.05,96.93,16.64,95,15a3.41,3.41,0,0,0-3.42-3.87Z"/><path class="a" d="M97.89,16.3c6-.26,4.25,9.05-.89,8.38-6.12.39-4.08-8.36.89-8.38m-.74,6.06c2,.21,3-3.64.75-3.77-1.81-.09-3.32,3.77-.75,3.77m.74-8.45c-7.74-.06-10.37,13.12-1.2,13.16,8.63.91,10.34-13.44,1.2-13.16Z"/><path class="b" d="M46.12,22.26h1.29c1.47-.12,1.75,1.26.88,2-.64.59-2.74.3-3.58.37-1.38,0-1.92-1.26-1.25-2.5a27.22,27.22,0,0,0,1.11-2.93c-.49-1.38-2.12-.36-2.56,1l-1.27,3.12c-.5,2-3.5,1.83-2.63-.27l.12-.29,2.17-5.36A1.42,1.42,0,0,1,43,17.11c1.57-1.42,4.43-1.12,4.52,1.17C47.59,19,46.36,21.52,46.12,22.26Z"/><path class="b" d="M55.13,16.46h1.51c1.51-.12,1.79,1.29.91,2-.63.57-2.55.32-3.38.37L49.25,31q-.61,1.5-1.71,1.5c-1.16-.06-1.37-1-.85-2.07l4.7-11.56h-.75c-1.52.13-1.77-1.27-.9-2,.52-.49,1.87-.36,2.61-.38.7-1.52,1.71-5,3.07-5.85,1-1,7.12-1.46,4.78,1.32a2.6,2.6,0,0,1-1.69.38C56.28,12.06,55.87,15,55.13,16.46Z"/><path class="b" d="M61.54,16.3c5.69,0,3.92,9-1.15,8.38C54,25,56.53,16,61.54,16.3Zm-.25,2.29c-1.81-.1-3.34,3.8-.71,3.77C62.54,22.52,63.53,18.71,61.29,18.59Z"/><path class="b" d="M73,22.26h1.19c2.31-.06,1.31,2.63-.47,2.34-.8,0-2.3.24-2.63-.72-.85.87-1.78.73-2.78.73-1.69,0-2.66-1.4-2.64-3.06-.3-3.13,4.14-7.28,6.66-4.36.56-1.07,2.46-1.13,2.51.23A45,45,0,0,1,73,22.26Zm-3.9.13a1.28,1.28,0,0,0,1.44-.72,15.77,15.77,0,0,0,.91-2.47C70.31,16.46,66.41,21.94,69.12,22.39Z"/><path class="b" d="M83.55,22.26h1.24c2.29-.14,1.43,2.61-.45,2.34-.82-.09-2.8.37-3.13-.69-.64.93-2.09.66-3,.7-4-.25-1.18-4.87-.45-6.88.71-2.36,3.7-1.66,2.49.55l-1.12,2.77c-.22.52-.49,1.25.39,1.22,3,.16,2.11-5.77,4.82-5.89,1.12.07,1.32,1.07.82,2.05Z"/><path class="b" d="M91.93,16.38c2.86-.15,1.92,2.83-.9,2.35l-1.44,3.53h1.2c1.48-.12,1.75,1.26.89,2-.6.56-2.46.32-3.26.37-1.74.07-2.17-1.45-1.38-2.76l1.27-3.12c-2.4.06-1.48-2.76,1-2.35C90.4,11.89,94,13.11,91.93,16.38Z"/><path class="b" d="M98.16,16.3c5.68,0,3.91,9-1.15,8.38C90.62,25,93.14,16,98.16,16.3Zm-.26,2.29c-1.81-.1-3.34,3.8-.71,3.77C99.15,22.52,100.14,18.71,97.9,18.59Z"/><path class="c" d="M31.19,21.27h2.05c1.53,0,2.3.52,2.3,1.55a2,2,0,0,1-.81,1.66,3.76,3.76,0,0,1-2.27.59H29.57a4.39,4.39,0,0,1-2.52-.63,1.93,1.93,0,0,1-.92-1.7,4,4,0,0,1,.38-1.47l3-7.08.2-.49a2.82,2.82,0,0,1,2.7-2,1.91,1.91,0,0,1,1.32.49,1.49,1.49,0,0,1,.55,1.17,4.93,4.93,0,0,1-.49,1.71ZM34.1,6a2.51,2.51,0,0,1,1.8.7,2.3,2.3,0,0,1,.73,1.72,2.28,2.28,0,0,1-.73,1.72,2.62,2.62,0,0,1-3.59,0,2.37,2.37,0,0,1,0-3.44A2.49,2.49,0,0,1,34.1,6Z"/></svg>