<svg xmlns="http://www.w3.org/2000/svg" viewBox="0 0 438.57 421.25"><title>max-exp</title><g id="Capa_2" data-name="Capa 2"><g id="OBJECTS"><path d="M404.84,176.85c-5.61-20.14,12.23-20.92,12.63-46.87.16-10.61-5.65-21.42-19.64-26.38-6.88-2.44-13.73-4.11-19.85-8C364,86.78,364.28,70,360.48,55.66,352.12,24.2,320-.79,287.44,0c-23.46.59-44.66,1.3-66,21.21-14.63,13.62-24.14,30.39-37.73,44.43-14.39,14.87-31.92,22-51.6,26.79-18.62,4.52-38.87,9.9-53.12,23.45C65.55,128.64,67.5,142,73.24,157.59c6.33,17.24-7.4,29-21.71,35.69-12.05,5.65-32.23,17.15-32.89,38.35-2,65.67,39.67,65.94,55.23,72.18,143.07,57.42,198,13.13,258.65,14,60.48.89,95.14-72.24,93-93.78C422.89,196.72,408.76,190.91,404.84,176.85Z" style="fill:#daf1fc"/><ellipse cx="215.25" cy="318.93" rx="169.13" ry="15.83" style="fill:#bce3e6"/><rect x="170.44" y="282.72" width="79.5" height="21.39" style="fill:#aed3ae"/><rect x="72.81" y="91.42" width="275.6" height="198.28" rx="9.39" ry="9.39" style="fill:#cdfdcd"/><rect x="80.5" y="98.65" width="259.37" height="172.02" rx="5.77" ry="5.77" style="fill:#fff"/><path d="M143.59,302.24h133.2a7.32,7.32,0,0,1,7.32,7.32v6.16a0,0,0,0,1,0,0H136.27a0,0,0,0,1,0,0v-6.16A7.32,7.32,0,0,1,143.59,302.24Z" style="fill:#cdfdcd"/><rect x="94.83" y="106.44" width="231.64" height="155.7" rx="10.15" ry="10.15" style="fill:#fcfcd0"/><rect x="160.21" y="225.45" width="6.93" height="6.93" style="fill:#ff6764"/><rect x="160.21" y="237.59" width="6.93" height="6.93" style="fill:#ff9c90"/><rect x="169.04" y="240.58" width="21.97" height="3.94" style="fill:#fff"/><rect x="169.04" y="228.44" width="21.97" height="3.94" style="fill:#fff"/><rect x="200.96" y="225.45" width="6.93" height="6.93" style="fill:#ff6764"/><rect x="200.96" y="237.59" width="6.93" height="6.93" style="fill:#ff9c90"/><rect x="209.8" y="240.58" width="21.97" height="3.94" style="fill:#fff"/><rect x="209.8" y="228.44" width="21.97" height="3.94" style="fill:#fff"/><rect x="237.65" y="225.45" width="6.93" height="6.93" style="fill:#ff6764"/><rect x="237.65" y="237.59" width="6.93" height="6.93" style="fill:#ff9c90"/><rect x="246.49" y="240.58" width="14.45" height="3.94" style="fill:#fff"/><rect x="246.49" y="228.44" width="14.45" height="3.94" style="fill:#fff"/><rect x="223.22" y="167.86" width="59.89" height="1.81" style="fill:#e4fec1"/><rect x="193.19" y="145.67" width="120.2" height="4.14" style="fill:#e4fec1"/><rect x="261.07" y="178.48" width="21.53" height="1.81" style="fill:#e4fec1"/><rect x="223.04" y="162.23" width="60.07" height="1.81" style="fill:#e4fec1"/><rect x="223.04" y="179.1" width="26.03" height="1.81" style="fill:#e4fec1"/><path d="M316.32,106.44H105a10.15,10.15,0,0,0-10.15,10.15v8.88H326.46v-8.88A10.15,10.15,0,0,0,316.32,106.44Z" style="fill:#fcdd86"/><circle cx="291.75" cy="116.3" r="2.93" style="fill:#aee6c4"/><circle cx="303.67" cy="116.3" r="2.93" style="fill:#aee6c4"/><circle cx="315.6" cy="116.3" r="2.93" style="fill:#aee6c4"/><rect x="106.9" y="139.58" width="74.33" height="74.33" rx="4.67" ry="4.67" style="fill:#e3ffe5"/><rect x="107.24" y="224.58" width="191.33" height="33.33" rx="4.67" ry="4.67" style="fill:#e3ffe5"/><rect x="217.57" y="199.37" width="79" height="13.76" rx="4.67" ry="4.67" style="fill:#bccee6"/><path d="M82.52,339.94c1.21-8.87,2.77-17.79.87-25.9-.08-.22-.17-.43-.26-.65l0-.1c-.09-.21-.18-.41-.28-.61l-.06-.12c-.1-.2-.2-.41-.31-.61l0,0c-.11-.2-.22-.39-.33-.58l-.05-.1-.37-.58-.06-.1L81.2,310l0,0-.39-.54-.07-.1-.42-.54-.09-.11-.45-.54-.05-.07-.44-.49-.09-.1-.48-.5-.11-.11-.51-.5-.06-.07-.49-.45-.11-.1-.53-.46-.14-.11-.54-.45-.11-.09-.5-.39-.14-.11-.57-.43-.15-.11-.59-.42-.13-.09-.54-.37-.13-.09-.59-.38-.24-.15-.56-.35-.23-.14-.43-.25L71,301.2l-.57-.32-.23-.12-.59-.32-.29-.15-.42-.21-.37-.18-.48-.23-.32-.15-.56-.26-.36-.16-.34-.15-.53-.23-.4-.17-.33-.14-.52-.22-.45-.18-.29-.11-.65-.24-.29-.1-.43-.16h0l-.52-.18h0l-.39-.14-.35-.11-.57-.19-.37-.11-.4-.13h0l-.53-.16-.43-.13-.28-.08-.66-.19-.3-.08-.44-.12h0c-7.65-2-15.33-2.53-20.68-1.44-7.18,13.49-5.58,29.7-4,45.33-1.14.19-3.35,1.21-3.23,5,.11,3.21,2.6,12.52,5.89,11A58.66,58.66,0,0,0,41.39,369v9.5l-3.77,2.29L35.19,382h0l-.67.33c-1.36.65-2.68,1.29-4,1.93l-2.22,1.08v0C13.32,393,3.26,400.9,0,421.25H113.73C110.48,400.9,100.42,393,85.4,385.36v0l-10-5-3.05-1.85v-8.9a56.48,56.48,0,0,0,6.58-14c3.29,1.52,5.78-7.79,5.88-11C84.9,341.74,83.63,340.46,82.52,339.94Z" style="fill:#9cf;fill-rule:evenodd"/><path d="M165.07,348.37c1.21-7.95,2.77-15.94.86-23.22-.09-.2-.17-.39-.27-.58l0-.09c-.09-.19-.18-.37-.28-.55l-.06-.1c-.1-.18-.2-.36-.31-.54l0,0c-.1-.18-.21-.35-.33-.52l-.06-.09-.36-.52-.06-.09-.39-.52,0,0-.39-.48-.07-.09-.42-.48-.09-.09c-.15-.16-.3-.33-.45-.48l-.06-.06-.44-.44-.09-.09-.48-.45-.12-.1-.51-.45-.07-.06-.49-.4-.1-.09-.53-.42-.14-.1-.55-.41-.11-.08-.5-.35-.13-.09-.57-.38-.15-.1-.59-.37-.13-.08L156,315l-.13-.08-.59-.34-.24-.14-.56-.31-.23-.12-.43-.23-.27-.14-.57-.29-.22-.11-.59-.29-.29-.13-.41-.19-.36-.16-.48-.21-.32-.14-.56-.23-.36-.15-.34-.13-.53-.21-.4-.15-.33-.12-.52-.19-.45-.16-.29-.1-.64-.22-.29-.09-.43-.14h0l-.52-.17h0l-.39-.12-.35-.1-.57-.17-.37-.1-.4-.11h0l-.53-.14-.44-.12-.28-.07-.66-.17-.3-.07-.44-.1h0c-7.65-1.8-15.33-2.26-20.68-1.29-7.18,12.09-5.58,26.62-4,40.63-1.14.17-3.35,1.08-3.23,4.45.1,2.87,2.6,11.22,5.88,9.85a50.17,50.17,0,0,0,6.16,12v8.52L120.17,385l-2.43,1.07h0l-.67.3q-2,.87-4,1.73l-2.22,1v0C95.87,396,85.81,403,82.55,421.25H196.28C193,403,183,396,167.95,389.08v0l-10-4.46-3.05-1.66v-8a48.57,48.57,0,0,0,6.58-12.56c3.28,1.37,5.78-7,5.88-9.85C167.45,350,166.18,348.84,165.07,348.37Z" style="fill:#9cf;fill-rule:evenodd"/><path d="M241.92,340.58c1.21-8.8,2.78-17.65.86-25.7-.08-.22-.17-.43-.26-.65l0-.09c-.09-.21-.18-.41-.28-.61l-.05-.11-.31-.6,0,0c-.1-.2-.21-.39-.33-.57l-.06-.1c-.12-.19-.23-.39-.36-.58l-.06-.09-.39-.58,0,0-.39-.53-.08-.1-.42-.54-.09-.1-.45-.53-.05-.07-.44-.48-.09-.1-.48-.5-.12-.11-.51-.49-.07-.07-.49-.45-.11-.1-.53-.46-.14-.11-.55-.45-.11-.09-.5-.39-.13-.1-.57-.42-.15-.11-.59-.41-.13-.09-.53-.36-.14-.09-.59-.37-.24-.15-.56-.34-.23-.14-.43-.25-.28-.16-.57-.32-.22-.12-.59-.32-.29-.15-.42-.21-.36-.18-.48-.23-.32-.15-.56-.26-.36-.16-.34-.15-.53-.23-.4-.17-.32-.14-.53-.22-.45-.18-.29-.11-.64-.24-.3-.1-.43-.16h0l-.52-.18h0l-.39-.13-.35-.11-.57-.19-.37-.11-.4-.12h0l-.53-.16-.44-.13-.28-.08-.66-.18-.3-.08-.44-.12h0c-7.65-2-15.33-2.51-20.69-1.43-7.19,13.38-5.59,29.47-4,45-1.14.19-3.35,1.2-3.23,4.92.1,3.18,2.6,12.42,5.89,10.91a58,58,0,0,0,6.15,13.3v9.43L197,381.12l-2.44,1.18h0l-.67.33c-1.35.64-2.67,1.28-4,1.92l-2.22,1.08v0c-15,7.62-25.08,15.42-28.34,35.61H273.13c-3.26-20.19-13.31-28-28.34-35.61v0l-10-4.93-3.05-1.84V370a55.93,55.93,0,0,0,6.58-13.9c3.28,1.51,5.78-7.73,5.89-10.91C244.3,342.36,243,341.1,241.92,340.58Z" style="fill:#9cf;fill-rule:evenodd"/><path d="M322.17,351.86c1.21-7.57,2.78-15.18.86-22.1-.08-.19-.17-.37-.26-.56l0-.08c-.09-.18-.18-.35-.28-.52l-.05-.1-.31-.52,0,0c-.1-.17-.21-.33-.33-.49l-.06-.08-.36-.5-.06-.08-.39-.5,0,0-.39-.46-.08-.09-.42-.46-.09-.09-.45-.46-.05-.06-.44-.41-.09-.09-.48-.43-.12-.1-.51-.42-.07-.06-.49-.39-.11-.08-.53-.4-.14-.1-.55-.39-.11-.08-.5-.34-.13-.09-.57-.36-.15-.09-.59-.36-.13-.08-.53-.31L313,320l-.59-.32-.24-.13-.56-.29-.23-.12-.43-.21-.28-.14-.57-.27-.22-.1-.59-.28L309,318l-.42-.18-.36-.15-.48-.2-.32-.13-.56-.22-.36-.14-.34-.13-.53-.2-.4-.14-.32-.12-.53-.19-.45-.15-.29-.1-.64-.21-.3-.09-.43-.14h0l-.52-.16h0l-.39-.12-.35-.1-.57-.17-.37-.1-.4-.11h0l-.53-.14-.44-.11-.28-.07-.66-.16-.3-.07-.44-.1h0c-7.65-1.71-15.33-2.16-20.69-1.23-7.19,11.51-5.59,25.34-4,38.69-1.14.16-3.35,1-3.23,4.24.1,2.74,2.6,10.68,5.89,9.38A47,47,0,0,0,281,376.67v8.11l-3.76,2-2.44,1h0l-.67.28q-2,.83-4,1.65l-2.22.92v0c-15,6.55-25.08,13.26-28.34,30.62H353.38c-3.26-17.36-13.31-24.07-28.34-30.62v0l-10-4.24L312,384.78v-7.6a45.53,45.53,0,0,0,6.58-12c3.28,1.3,5.78-6.64,5.89-9.38A3.73,3.73,0,0,0,322.17,351.86Z" style="fill:#9cf;fill-rule:evenodd"/><path d="M407.35,334.51c1.21-9.46,2.78-19,.86-27.63-.08-.24-.17-.46-.26-.69l0-.1c-.09-.22-.18-.44-.28-.65l-.05-.12-.31-.65,0,0c-.1-.21-.21-.42-.33-.62l-.06-.11c-.12-.21-.23-.41-.36-.62l-.06-.1-.39-.62,0,0-.39-.57-.08-.11-.42-.58-.09-.11-.45-.57-.05-.07-.44-.52-.09-.11-.48-.53-.12-.12-.51-.53-.07-.07-.49-.48-.11-.1-.53-.49-.14-.12c-.18-.16-.36-.33-.55-.48l-.11-.09-.5-.42-.13-.11-.57-.45-.15-.12-.59-.45-.13-.09-.53-.39-.14-.09-.59-.4-.24-.16-.56-.37-.23-.15-.43-.27-.28-.17-.57-.34-.22-.13-.59-.34-.29-.16-.42-.23-.36-.19-.48-.25-.32-.16-.56-.28-.36-.17-.34-.16-.53-.24-.4-.18-.32-.15-.53-.23-.45-.19-.29-.12-.64-.26-.3-.11-.43-.17h0l-.52-.2h0l-.39-.14-.35-.12-.57-.21-.37-.12-.4-.13h0l-.53-.17-.44-.14-.28-.08-.66-.2-.3-.09-.44-.12h0c-7.65-2.14-15.33-2.69-20.69-1.53-7.19,14.39-5.59,31.68-4,48.36-1.14.2-3.35,1.29-3.23,5.29.1,3.42,2.6,13.35,5.89,11.73a64.63,64.63,0,0,0,6.15,14.3v10.13l-3.76,2.44L360,379.37h0l-.67.35c-1.35.69-2.67,1.37-4,2.06l-2.22,1.16v0c-15,8.19-25.08,16.57-28.34,38.28H438.57c-3.26-21.71-13.31-30.09-28.34-38.28v0l-10-5.3-3.05-2v-9.5a62.21,62.21,0,0,0,6.58-14.94c3.28,1.63,5.78-8.31,5.89-11.73C409.74,336.43,408.47,335.07,407.35,334.51Z" style="fill:#9cf;fill-rule:evenodd"/></g></g></svg>