<svg xmlns="http://www.w3.org/2000/svg" viewBox="0 0 340.56 203.12"><title>Recurso 16</title><g id="Capa_2" data-name="Capa 2"><g id="Capa_1-2" data-name="Capa 1"><path d="M305.64,165.12H278.3a3,3,0,0,1,0-6h27.34c15.62,0,20.12-7.34,22.32-19.19l6-38.75a2.91,2.91,0,0,1,.07-.33c0-.06,1.91-7.44-2-13.3C329.5,83.57,324.73,81,318,80l-74-9a3,3,0,0,1-1.57-.68l-67.2-56.49-1.27-1.1C169.39,8.83,166.15,6,158.47,6H28.14a3,3,0,0,1,0-6H158.47c9.93,0,14.72,4.19,19.36,8.23l1.21,1,66.5,55.89,73.23,8.93c8.65,1.27,14.82,4.71,18.42,10.22,5,7.63,3.09,16.5,2.73,17.94l-6,38.69C331.64,152.94,326.56,165.12,305.64,165.12Z"/><path d="M239.25,203.12a41,41,0,1,1,41-41A41,41,0,0,1,239.25,203.12Zm0-76a35,35,0,1,0,35,35A35,35,0,0,0,239.25,127.12Z"/><path d="M41,203.12a41,41,0,1,1,41-41A41,41,0,0,1,41,203.12Zm0-76a35,35,0,1,0,35,35A35,35,0,0,0,41,127.12Z"/><path d="M198,165.12H79a3,3,0,0,1,0-6H198a3,3,0,0,1,0,6Z"/><path d="M161.2,73.12H46.75a3,3,0,0,1,0-6H161.2a3,3,0,0,1,0,6Z"/></g></g></svg>