<svg xmlns="http://www.w3.org/2000/svg" viewBox="0 0 415.36 213.61"><defs><style>.a{fill:#e5b927;}.b{fill:#040006;}.c{fill:#5086c1;}</style></defs><title>step</title><path class="a" d="M415.36,99.64c-4,23.56-.7,54.06-27.5,60.78-24.9,6.24-26.35-16.5-41.25-24.26-38.36-20-39.62-2-68.89,16.07-21.33,13.18-70.14,16.27-95.46,9.29-23.7-6.54-31.57-30.72-54.79-35.68C76.83,115,100.64,159,76.23,159.56-26.67,161.87,2.32,122.44,8.33,98c5.51-22.37,49.89-22.55,79.36-69.92.64-1,.54-.93.95-1.53C112.19-8.54,182.08,1,198.11,1.75c63.27,3.11,71.45,45.5,124.32,67.72C346.91,79.76,411.69,62.7,415.36,99.64Z"/><path class="b" d="M365.37,175.61c-3.81.74-30.34,2.71-30.34-3,0,7.87,48.7-15.18,52.66-22.19s8-32.7,6.12-39.08C383,74.2,327.77,92.55,297.65,77.1c-31.63-16.23-49-51.92-84-60.61C200,13.1,84.87,22.1,84.87,13.49c0-5.44,108.26-4.09,117.94-3C239,14.57,252.91,33,281.86,56c32.76,26,62,11,96.63,28.6C407.36,99.22,408.16,175.61,365.37,175.61Z"/><path class="b" d="M299,213.61c-52.87,0-52.87-82,0-82S351.86,213.61,299,213.61Zm0-76c-44.48,0-44.48,70,0,70C342.95,207.61,344.8,137.61,299,137.61Z"/><path class="b" d="M100.73,213.61c-52.87,0-52.87-82,0-82S153.61,213.61,100.73,213.61Zm0-76c-44.48,0-44.48,70,0,70C144.69,207.61,146.55,137.61,100.73,137.61Z"/><path class="b" d="M257.7,175.61c-12.87,0-122,3-122-3C135.73,160,260.14,175.61,257.7,175.61Z"/><path class="b" d="M220.94,83.61c-12.43,0-117.45,3-117.45-3C103.48,68,223.79,83.61,220.94,83.61Z"/><path class="a" d="M34.33,71.53"/><path class="a" d="M18.83,162"/><circle class="c" cx="206.68" cy="98.37" r="76.66"/></svg>