<svg xmlns="http://www.w3.org/2000/svg" viewBox="0 0 361.8 224.58"><title>step-bg</title><g id="Capa_2" data-name="Capa 2"><g id="Capa_1-2" data-name="Capa 1"><path d="M361.62,98.61l-7.79,46.46a4.41,4.41,0,0,1-.29,1c-.69,1.62-3.12,6.8-7.17,10-4.62,3.67-12.25,3.3-12.25,3.3l-13.77.05a23.27,23.27,0,0,1-21.6-14.37c-4.09-9.9-12.94-21.32-32-21.79-23.1-.57-33.53,11.93-38.21,22.59A24.59,24.59,0,0,1,206,160.5H127.18a31.63,31.63,0,0,1-28.42-17.76c-4.62-9.45-14-19.19-33-19.44-27.4-.37-35.92,21.05-38.47,31.76-1.2,5-8.59,4.48-8.9-.69q0-.12,0-.25C16.87,117.75,22.93,13.63,53.5,2c5.25-2,104.9-4.38,136.75,3.33,18.25,4.42,55.1,53.36,78.45,63.13,16.67,7,70.42,8.7,74.77,8.82a4.42,4.42,0,0,1,.62.06c1.61.27,8.56,1.69,12.66,6.19A18.43,18.43,0,0,1,361.62,98.61Z" style="fill:#e5b927"/><path d="M305.64,186.58H278.3a3,3,0,0,1,0-6h27.34c15.62,0,20.12-7.34,22.32-19.19l6-38.75a2.91,2.91,0,0,1,.07-.33c0-.06,1.91-7.44-2-13.3-2.62-4-7.39-6.51-14.17-7.51l-74-9a3,3,0,0,1-1.57-.68l-67.2-56.49-1.27-1.1c-4.49-3.92-7.73-6.75-15.41-6.75H28.14a3,3,0,0,1,0-6H158.47c9.93,0,14.72,4.19,19.36,8.23l1.21,1,66.5,55.89,73.23,8.93c8.65,1.27,14.82,4.71,18.42,10.22,5,7.63,3.09,16.5,2.73,17.94l-6,38.69C331.64,174.4,326.56,186.58,305.64,186.58Z" style="fill:#040006"/><path d="M239.25,224.58a41,41,0,1,1,41-41A41,41,0,0,1,239.25,224.58Zm0-76a35,35,0,1,0,35,35A35,35,0,0,0,239.25,148.58Z" style="fill:#040006"/><path d="M41,224.58a41,41,0,1,1,41-41A41,41,0,0,1,41,224.58Zm0-76a35,35,0,1,0,35,35A35,35,0,0,0,41,148.58Z" style="fill:#040006"/><path d="M198,186.58H79a3,3,0,1,1,0-6H198a3,3,0,0,1,0,6Z" style="fill:#040006"/><path d="M161.2,94.58H46.75a3,3,0,0,1,0-6H161.2a3,3,0,0,1,0,6Z" style="fill:#040006"/><circle cx="180.9" cy="106" r="73" style="fill:#3f72b3"/></g></g></svg>